<svg width="251" height="257" viewBox="0 0 251 257" fill="none" xmlns="http://www.w3.org/2000/svg">
<g clip-path="url(#clip0_358_1182)">
<path d="M230.598 152.648C231.045 153.141 231.388 153.72 231.606 154.349C231.824 154.978 231.913 155.645 231.867 156.309C231.767 157.639 231.363 158.928 230.686 160.076C229.446 162.324 227.123 164.157 224.903 165.45C223.626 162.9 224.414 159.683 224.903 158.08C225.694 155.53 228.669 151.435 230.584 152.648" fill="#CAD9E8"/>
<path d="M225.613 170.296C225.755 169.566 226.088 168.886 226.578 168.325C227.068 167.765 227.697 167.343 228.403 167.105C229.11 166.876 229.856 166.791 230.596 166.853C231.337 166.916 232.058 167.125 232.716 167.469C233.333 167.779 233.938 168.245 234.087 168.926C234.136 169.244 234.1 169.57 233.982 169.869C233.864 170.169 233.669 170.432 233.417 170.631C232.904 171.026 232.297 171.277 231.655 171.36C229.489 171.724 227.323 171.695 225.613 170.311" fill="#CAD9E8"/>
<path d="M220.085 176.486C220.162 176.327 220.252 176.175 220.355 176.031C220.556 175.714 220.818 175.302 221.136 174.818C221.807 173.812 222.733 172.362 224.209 171.174C225.452 170.151 226.945 169.475 228.534 169.218C229.017 169.146 229.507 169.133 229.993 169.178C230.124 169.189 230.254 169.208 230.383 169.236C230.47 169.236 230.518 169.261 230.518 169.269C229.865 169.23 229.21 169.256 228.563 169.349C227.011 169.641 225.558 170.319 224.337 171.32C222.879 172.471 221.952 173.896 221.256 174.879C220.891 175.382 220.629 175.787 220.425 176.06C220.327 176.213 220.213 176.356 220.085 176.486Z" fill="#A1BFE2"/>
<path d="M228.611 155.974C228.595 156.05 228.573 156.124 228.545 156.196L228.334 156.819C228.144 157.359 227.86 158.138 227.502 159.096C226.773 161.013 225.756 163.647 224.556 166.529C223.356 169.411 222.211 171.994 221.354 173.856C220.928 174.785 220.574 175.535 220.326 176.042C220.206 176.286 220.107 176.482 220.034 176.635C220.001 176.704 219.963 176.771 219.921 176.836C219.937 176.76 219.962 176.686 219.998 176.617C220.067 176.461 220.151 176.253 220.257 176.012L221.234 173.794C222.058 171.925 223.185 169.331 224.385 166.449C225.584 163.567 226.631 160.944 227.378 159.042L228.264 156.787L228.512 156.174C228.537 156.104 228.57 156.037 228.611 155.974Z" fill="#A1BFE2"/>
<path d="M221.58 170.318C221.93 168.788 221.909 167.196 221.519 165.675C221.13 164.155 220.383 162.749 219.341 161.574C218.809 160.984 218.025 160.419 217.274 160.689C216.523 160.958 216.282 161.898 216.268 162.696C216.266 164.361 216.757 165.989 217.68 167.375C218.602 168.762 219.915 169.844 221.453 170.485" fill="#CAD9E8"/>
<path d="M218.744 163.953C218.875 164.064 218.997 164.186 219.108 164.317C219.238 164.461 219.36 164.612 219.473 164.769C219.604 164.955 219.776 165.152 219.925 165.4C220.099 165.659 220.259 165.928 220.403 166.205C220.575 166.521 220.73 166.847 220.866 167.181C221.177 167.948 221.4 168.747 221.53 169.564C221.647 170.382 221.669 171.211 221.595 172.034C221.56 172.393 221.505 172.749 221.431 173.102C221.371 173.409 221.292 173.712 221.194 174.009C221.121 174.256 221.035 174.499 220.935 174.737C220.866 174.919 220.785 175.097 220.695 175.269C220.629 175.422 220.55 175.568 220.458 175.706C220.417 175.706 220.757 175.062 221.07 173.969C221.156 173.672 221.226 173.37 221.278 173.065C221.346 172.718 221.395 172.368 221.424 172.016C221.486 171.205 221.46 170.391 221.347 169.586C221.216 168.785 221.002 168 220.709 167.243C220.563 166.879 220.428 166.569 220.268 166.274C220.13 165.997 219.978 165.727 219.812 165.465C219.218 164.5 218.711 163.982 218.744 163.953Z" fill="#A1BFE2"/>
<path d="M12.2707 137.499C12.2707 137.499 8.91603 138.592 12.1686 145.766C15.4212 152.939 17.7439 156.546 17.7439 156.546C17.7439 156.546 18.3018 158.204 16.9162 158.393C15.5306 158.583 12.5405 157.956 11.8441 159.607C11.1148 161.319 12.3145 163.02 14.8122 164.58C17.31 166.139 22.6593 169.764 23.1406 170.092C23.6219 170.42 24.0668 171.185 23.1406 171.477C22.2144 171.768 15.3847 172.147 15.7639 175.375C16.1432 178.603 23.8188 181.809 24.6502 182.173C25.4816 182.538 25.6675 182.902 25.5764 183.372C25.4852 183.842 23.1771 183.736 21.2408 183.937C19.3046 184.137 17.0876 184.687 17.4595 186.534C17.8315 188.382 22.28 192.422 33.4599 194.051L38.6888 194.466L41.7445 190.178C47.7355 180.607 47.5203 174.592 46.3535 173.134C45.1867 171.677 43.327 172.981 41.9304 174.337C40.5339 175.692 39.1045 177.506 38.6924 177.277C38.2804 177.047 38.12 176.668 38.3789 175.797C38.6377 174.927 41.1501 167.003 38.9295 164.627C36.7088 162.252 32.0013 167.207 31.1845 167.728C30.3677 168.249 30.0724 167.4 30.1307 166.831C30.1891 166.263 30.8819 159.832 31.3048 156.921C31.7278 154.01 31.1991 152.003 29.4306 151.456C27.7241 150.917 26.2582 153.606 25.219 154.539C24.1798 155.471 23.2755 153.974 23.2755 153.974C23.2755 153.974 22.0321 149.883 18.6482 142.756C15.2644 135.63 12.2051 137.55 12.2051 137.55" fill="#CAD9E8"/>
<path d="M38.904 195.723C36.4391 190.48 32.2166 181.088 28.5483 173.039C24.88 164.991 21.5545 157.719 19.1187 152.462C17.8972 149.842 16.909 147.726 16.2235 146.243L15.4395 144.549L15.239 144.108C15.1916 144.006 15.1733 143.955 15.1733 143.955C15.1733 143.955 15.2025 144.002 15.2536 144.101C15.3046 144.199 15.3739 144.348 15.4687 144.534L16.2819 146.214C16.9856 147.671 17.992 149.791 19.2208 152.407C21.6858 157.65 25.0295 164.922 28.7015 172.967C32.3734 181.011 36.574 190.411 39.0134 195.668" fill="#A1BFE2"/>
<path d="M16.0044 160.649C16.1301 160.675 16.2524 160.715 16.369 160.769C16.5951 160.853 16.9233 160.988 17.3244 161.155C18.1266 161.494 19.2242 161.989 20.4275 162.554L23.4977 164.011L24.4312 164.449C24.5492 164.494 24.6618 164.553 24.7667 164.624C24.6413 164.598 24.519 164.559 24.402 164.507C24.1723 164.42 23.8478 164.288 23.4467 164.117C22.6445 163.771 21.5542 163.261 20.3545 162.693L17.2733 161.235L16.3399 160.802C16.2226 160.763 16.1101 160.712 16.0044 160.649Z" fill="#A1BFE2"/>
<path d="M25.135 164.317C25.0949 164.317 26.0175 161.993 27.1953 159.166C28.373 156.338 29.3831 154.065 29.405 154.065C29.4269 154.065 28.5262 156.386 27.3448 159.213C26.1633 162.04 25.1788 164.332 25.135 164.317Z" fill="#A1BFE2"/>
<path d="M30.2109 176.923C30.2766 176.811 30.3536 176.706 30.4407 176.61L31.1007 175.79C31.6549 175.098 32.4207 174.14 33.2265 173.05C34.0324 171.961 34.7288 170.952 35.2284 170.219L35.8191 169.349C35.8836 169.236 35.962 169.132 36.0525 169.039C36.0032 169.159 35.9422 169.274 35.8701 169.382C35.7462 169.596 35.5602 169.906 35.3232 170.281C34.8492 171.032 34.1673 172.056 33.3578 173.149C32.5483 174.242 31.768 175.189 31.1882 175.867C30.8965 176.202 30.6594 176.471 30.4881 176.654C30.4057 176.753 30.3128 176.844 30.2109 176.923Z" fill="#A1BFE2"/>
<path d="M21.2188 175.422C21.3409 175.417 21.4632 175.426 21.5834 175.448L22.5497 175.568C23.3628 175.677 24.4859 175.841 25.7257 176.034C26.9655 176.228 28.0849 176.399 28.898 176.544L29.8534 176.719C29.9778 176.733 30.1001 176.761 30.218 176.803C30.0961 176.811 29.9735 176.804 29.8534 176.781L28.8871 176.657C28.0703 176.548 26.9472 176.384 25.7075 176.195C24.4677 176.005 23.3482 175.83 22.5387 175.681L21.5834 175.51C21.4586 175.496 21.336 175.467 21.2188 175.422Z" fill="#A1BFE2"/>
<path d="M24.2856 187.121C24.4383 187.12 24.5909 187.132 24.7414 187.157L25.9812 187.307C27.0241 187.445 28.4644 187.642 30.0542 187.871C31.6441 188.101 33.0844 188.316 34.1273 188.48L35.3561 188.684C35.5091 188.708 35.6594 188.747 35.8046 188.8C35.6519 188.802 35.4994 188.789 35.3488 188.764L34.109 188.615C33.0661 188.476 31.6222 188.279 30.0324 188.05C28.4425 187.82 27.0022 187.605 25.963 187.442L24.7342 187.238C24.581 187.214 24.4307 187.175 24.2856 187.121Z" fill="#A1BFE2"/>
<path d="M35.5381 188.662C35.6213 188.521 35.7152 188.388 35.8188 188.261L36.6174 187.19C37.292 186.287 38.2182 185.037 39.2027 183.627C40.1872 182.217 41.0478 180.92 41.664 179.984L42.3933 178.865C42.4751 178.725 42.5691 178.592 42.6741 178.468C42.6094 178.619 42.5326 178.764 42.4443 178.902C42.2876 179.175 42.0542 179.565 41.7588 180.046C41.1681 181.007 40.3221 182.319 39.3376 183.729C38.3531 185.139 37.4087 186.381 36.7086 187.27C36.3439 187.711 36.0704 188.065 35.8662 188.305C35.77 188.435 35.66 188.555 35.5381 188.662Z" fill="#A1BFE2"/>
<path d="M194.623 62.9055C185.281 58.2056 181.766 47.4906 180.672 37.5589C180.49 35.9012 180.056 34.1888 180.632 32.6295C181.208 31.0701 182.9 29.8132 184.479 30.2941C185.788 30.6949 186.528 32.0429 187.396 33.1213C188.539 34.5608 190.066 35.6483 191.801 36.2582C192.931 36.6517 194.28 36.7974 195.236 36.0761C196.545 35.0851 196.432 33.0958 196.184 31.4563C195.722 28.4008 195.26 25.3453 194.798 22.2897C194.55 20.6502 194.302 18.9743 194.587 17.3457C194.871 15.7172 195.794 14.1032 197.292 13.4401C198.791 12.777 200.851 13.4 201.416 14.9594C201.65 15.6079 201.613 16.3183 201.755 16.996C201.898 17.6737 202.328 18.3768 203.002 18.4715C203.677 18.5663 204.275 18.0088 204.698 17.4587C206.157 15.5569 206.995 13.2579 207.761 10.9809C208.527 8.70378 209.26 6.37935 210.536 4.35002C211.812 2.32068 213.73 0.58282 216.064 0.109188C218.397 -0.364444 221.11 0.724912 222.04 2.94734C222.97 5.16977 221.96 7.71645 220.76 9.80043C218.988 12.895 216.777 15.7174 214.197 18.1801C213.734 18.6246 213.231 19.1018 213.103 19.7358C212.902 20.8834 214.098 21.8198 215.232 22.0238C216.512 22.2533 217.825 21.9327 219.127 21.8999C220.429 21.8671 221.898 22.2278 222.554 23.3572C223.47 24.9384 222.321 26.8985 221.096 28.2502C218.662 30.9549 215.781 33.2212 212.578 34.9503C211.433 35.566 210.219 36.138 209.369 37.1363C208.519 38.1345 208.14 39.6866 208.899 40.7577C209.657 41.8289 211.218 41.9783 212.45 41.5629C213.683 41.1476 214.715 40.295 215.852 39.6684C217.985 38.4879 220.924 38.2111 222.653 39.9635C223.787 41.1075 224.111 42.8782 223.867 44.4739C223.623 46.0697 222.824 47.527 221.967 48.8896C218.963 53.6515 214.828 57.7356 209.854 60.3042C204.88 62.8727 200.104 64.0641 194.623 62.9164" fill="#CAD9E8"/>
<path d="M196.282 56.3402C197.011 51.1412 198.295 45.5123 199.833 39.6684C200.222 38.2111 200.606 36.7707 200.986 35.3474C201.35 33.9302 201.748 32.5238 202.203 31.1685C203.084 28.5745 204.108 26.0312 205.27 23.5503C206.364 21.1712 207.487 18.9561 208.552 16.894C209.617 14.8319 210.656 12.9264 211.673 11.2323C213.263 8.54338 215.064 5.985 217.059 3.58127C217.763 2.73238 218.331 2.09116 218.722 1.66125L219.17 1.17669C219.219 1.12012 219.273 1.06771 219.331 1.02002C219.29 1.08372 219.244 1.14349 219.192 1.19854L218.769 1.70497C218.404 2.14581 217.839 2.79796 217.15 3.65779C215.196 6.07787 213.428 8.64152 211.859 11.327C210.856 13.0248 209.835 14.9302 208.778 16.9923C207.72 19.0545 206.608 21.2769 205.525 23.6523C204.376 26.1276 203.362 28.6635 202.488 31.2487C202.036 32.5931 201.664 33.9884 201.281 35.4093L200.125 39.7303C198.628 45.205 197.437 50.7587 196.559 56.3657" fill="#A1BFE2"/>
<path d="M202.291 31.1467C202.178 30.9316 202.09 30.7043 202.029 30.4691C201.876 30.0282 201.664 29.3761 201.445 28.5818C200.975 26.9824 200.403 24.7527 199.783 22.2898C199.163 19.8269 198.561 17.6081 198.069 16.0197C197.825 15.2254 197.62 14.5806 197.474 14.1397C197.383 13.9148 197.318 13.6801 197.281 13.4402C197.406 13.6489 197.508 13.8699 197.588 14.0996C197.766 14.5295 198.003 15.1635 198.273 15.9504C198.82 17.528 199.458 19.7468 200.096 22.2133C200.734 24.6798 201.252 26.844 201.671 28.5272L202.16 30.4363C202.227 30.6682 202.271 30.9062 202.291 31.1467Z" fill="#A1BFE2"/>
<path d="M222.831 24.155C222.563 24.2549 222.286 24.3293 222.003 24.3773C221.467 24.5048 220.694 24.6833 219.743 24.9347C217.839 25.4229 215.236 26.188 212.395 27.1571C209.555 28.1263 207.031 29.1245 205.223 29.8969C204.315 30.2612 203.589 30.6037 203.082 30.826C202.828 30.9555 202.564 31.0628 202.291 31.1466C202.519 30.9794 202.764 30.8354 203.02 30.7167C203.509 30.4616 204.224 30.1009 205.124 29.6965C206.915 28.8731 209.442 27.8457 212.286 26.8657C214.713 26.0265 217.181 25.3103 219.681 24.7197C220.64 24.4975 221.427 24.3554 221.971 24.2607C222.253 24.1979 222.542 24.1625 222.831 24.155Z" fill="#A1BFE2"/>
<path d="M196.486 55.914C196.486 55.914 196.413 55.8375 196.304 55.6772L195.83 54.9667C195.425 54.3474 194.86 53.4365 194.178 52.3034C192.807 50.0337 191.017 46.8385 189.073 43.2862C187.129 39.734 185.383 36.5279 184.067 34.2326L182.495 31.5183C182.327 31.2232 182.189 30.9791 182.072 30.7896C182.017 30.7064 181.974 30.6156 181.944 30.52C182.013 30.5922 182.074 30.6716 182.127 30.7568C182.251 30.9499 182.407 31.1831 182.597 31.4673C183.002 32.0867 183.567 32.9975 184.252 34.1342C185.62 36.4003 187.41 39.5992 189.357 43.1478C191.305 46.6964 193.048 49.9061 194.364 52.2014L195.936 54.9157L196.358 55.6444C196.412 55.7288 196.455 55.8193 196.486 55.914Z" fill="#A1BFE2"/>
<path d="M223.229 42.8271C223.149 42.8917 223.061 42.9445 222.966 42.9838L222.19 43.3736L219.327 44.78C216.91 45.9677 213.591 47.6473 209.923 49.5163C206.255 51.3853 202.918 53.0285 200.475 54.1688C199.254 54.7372 198.258 55.1889 197.558 55.484L196.756 55.8229C196.667 55.8705 196.571 55.9037 196.472 55.9213C196.551 55.8586 196.638 55.8071 196.731 55.7682L197.507 55.3784L200.37 53.9684C202.787 52.7807 206.109 51.1011 209.777 49.2321C213.446 47.3631 216.782 45.7236 219.225 44.5832C220.447 44.0149 221.439 43.5631 222.142 43.2643L222.941 42.9255C223.033 42.8823 223.13 42.8493 223.229 42.8271Z" fill="#A1BFE2"/>
<path d="M23.0639 61.1568C23.0639 55.2145 16.814 51.4473 10.4401 54.4275C8.9992 55.1004 7.82115 56.2301 7.08909 57.641C5.48468 60.7414 6.19208 64.2864 7.64699 67.2302L12.6061 79.7887C12.7642 80.1886 13.0394 80.5315 13.3957 80.7725C13.7521 81.0135 14.1729 81.1413 14.6032 81.1394C15.0335 81.1374 15.4532 81.0057 15.8073 80.7614C16.1615 80.5172 16.4335 80.1718 16.5879 79.7705L21.4522 67.1464C23.1369 63.3027 23.0639 61.1568 23.0639 61.1568ZM17.0766 66.3303C12.792 68.8187 8.44919 64.2208 10.8011 59.6776C11.1075 59.0779 11.5795 58.5785 12.1612 58.2385C16.4457 55.7464 20.7886 60.348 18.4366 64.8875C18.1293 65.4875 17.6576 65.9879 17.0766 66.3303Z" fill="#63A7EA"/>
<path d="M247.426 256.905C247.426 256.956 192.73 257 125.294 257C57.8578 257 3.14014 256.956 3.14014 256.905C3.14014 256.854 57.8359 256.811 125.294 256.811C192.752 256.811 247.426 256.854 247.426 256.905Z" fill="#263238"/>
<path d="M118.658 222.279C171.259 222.279 213.901 179.673 213.901 127.116C213.901 74.5581 171.259 31.9519 118.658 31.9519C66.0561 31.9519 23.4141 74.5581 23.4141 127.116C23.4141 179.673 66.0561 222.279 118.658 222.279Z" fill="white"/>
<path d="M118.658 222.563C95.05 222.531 72.2957 213.739 54.8085 197.893C37.3213 182.047 26.3478 160.276 24.0165 136.804C21.6852 113.331 28.1624 89.8302 42.1915 70.8591C56.2207 51.8881 76.8019 38.7995 99.9428 34.1321C123.084 29.4648 147.135 33.5514 167.431 45.5992C187.727 57.6471 202.821 76.7974 209.785 99.3355C216.75 121.874 215.088 146.193 205.122 167.576C195.157 188.959 177.597 205.882 155.851 215.062C144.085 220.037 131.434 222.589 118.658 222.563ZM118.658 32.2397C95.1945 32.272 72.5797 41.0103 55.1998 56.7597C37.82 72.5091 26.914 94.1469 24.5975 117.476C22.281 140.805 28.719 164.162 42.6628 183.016C56.6065 201.871 77.062 214.879 100.061 219.517C123.061 224.155 146.965 220.093 167.136 208.118C187.307 196.143 202.308 177.11 209.229 154.71C216.15 132.309 214.498 108.139 204.593 86.8871C194.687 65.6352 177.235 48.8167 155.621 39.6939C143.928 34.7493 131.355 32.2139 118.658 32.2397Z" fill="#31313C"/>
<path d="M118.657 212.14C165.654 212.14 203.753 174.073 203.753 127.116C203.753 80.158 165.654 42.0913 118.657 42.0913C71.6602 42.0913 33.5615 80.158 33.5615 127.116C33.5615 174.073 71.6602 212.14 118.657 212.14Z" fill="#295EAC"/>
<path d="M183.472 36.5352H174.721L118.016 118.605L81.3513 77.3513H72.6036L73.6392 84.1971L50.8237 104.436L115.252 187.139H123.803L216.399 60.6503L183.472 36.5352Z" fill="#31313C"/>
<path d="M115.186 186.698L42.0762 104.436L72.6037 77.3513L112.145 121.844L174.721 36.5352L207.648 60.6503L115.186 186.698Z" fill="white"/>
<path d="M115.208 187.15L114.975 186.888L41.6821 104.414L72.6327 76.9505L72.8223 77.1618L112.123 121.399L174.659 36.1453L208.045 60.5956L207.877 60.8215L115.208 187.15ZM42.477 104.447L115.164 186.25L207.254 60.7122L174.783 36.9322L112.167 122.295L72.578 77.752L42.477 104.447Z" fill="#31313C"/>
<path d="M7.36265 233.326C7.93406 233.502 8.46384 233.792 8.92006 234.178C9.37628 234.565 9.7495 235.039 10.0172 235.574C10.5489 236.646 10.8271 237.827 10.8304 239.024C10.9033 241.33 9.94794 243.807 8.8212 245.822C6.66619 244.434 5.80564 241.589 5.45558 240.12C4.90862 237.796 5.32796 233.26 7.36265 233.326Z" fill="#63A7EA"/>
<path d="M11.5887 249.243C11.3641 248.614 11.3098 247.936 11.4315 247.279C11.5532 246.622 11.8464 246.009 12.2815 245.502C12.7262 245.003 13.2656 244.597 13.8683 244.308C14.4711 244.019 15.1253 243.853 15.793 243.818C16.4092 243.778 17.0911 243.858 17.5105 244.31C17.6947 244.533 17.8162 244.8 17.8624 245.085C17.9085 245.37 17.8777 245.662 17.773 245.932C17.5563 246.468 17.2 246.937 16.7411 247.29C15.2351 248.569 13.5432 249.531 11.5887 249.243Z" fill="#63A7EA"/>
<path d="M10.1518 256.566C10.1376 256.408 10.1376 256.248 10.1518 256.089C10.1518 255.754 10.1809 255.32 10.1992 254.796C10.2135 253.362 10.4598 251.939 10.9285 250.584C11.4186 249.225 12.2618 248.02 13.3715 247.094C13.7078 246.821 14.0749 246.589 14.4655 246.401C14.5709 246.35 14.6793 246.305 14.79 246.267C14.8279 246.248 14.8685 246.236 14.9103 246.23C14.3931 246.498 13.9044 246.818 13.4518 247.185C12.384 248.119 11.571 249.309 11.0889 250.642C10.6326 251.984 10.3783 253.386 10.3341 254.803C10.2976 255.349 10.2648 255.79 10.2356 256.093C10.2209 256.253 10.1928 256.411 10.1518 256.566Z" fill="#263238"/>
<path d="M7.36266 236.805C7.38514 236.87 7.40222 236.937 7.41372 237.005C7.44532 237.156 7.48543 237.349 7.53404 237.585C7.63614 238.087 7.77471 238.82 7.93515 239.723C8.25968 241.545 8.66442 244.037 9.06188 246.813C9.45934 249.589 9.75469 252.114 9.9443 253.943C10.0391 254.858 10.1084 255.597 10.1521 256.107C10.1704 256.351 10.185 256.544 10.1959 256.697C10.2023 256.767 10.2023 256.836 10.1959 256.905C10.1728 256.839 10.1593 256.771 10.1558 256.701C10.1376 256.552 10.112 256.337 10.0792 256.115C10.0172 255.583 9.92607 254.85 9.82032 253.954C9.59789 252.132 9.28066 249.615 8.8905 246.839C8.50034 244.062 8.10653 241.556 7.79658 239.741C7.65073 238.852 7.53404 238.124 7.45017 237.596C7.41371 237.355 7.38454 237.162 7.35901 237.009C7.35128 236.941 7.35251 236.872 7.36266 236.805Z" fill="#263238"/>
<path d="M8.48191 251.101C8.0512 249.76 7.30695 248.541 6.31078 247.544C5.31461 246.548 4.09517 245.802 2.75343 245.37C2.06791 245.159 1.20736 245.079 0.751564 245.633C0.295766 246.186 0.536429 247.021 0.890129 247.644C1.65128 248.931 2.77676 249.963 4.12461 250.612C5.47245 251.26 6.98229 251.495 8.46367 251.287" fill="#63A7EA"/>
<path d="M3.37673 247.484C3.5239 247.507 3.66814 247.546 3.807 247.6C3.97463 247.649 4.13903 247.709 4.29926 247.779C4.51693 247.861 4.72996 247.954 4.93738 248.059C5.188 248.18 5.43149 248.315 5.66666 248.464C5.94601 248.628 6.21512 248.809 6.47251 249.007C7.66667 249.9 8.62326 251.072 9.25835 252.42C9.39819 252.714 9.51996 253.016 9.62299 253.324C9.71935 253.588 9.79852 253.858 9.86001 254.133C9.91731 254.358 9.96114 254.587 9.99127 254.818C10.0232 254.99 10.0439 255.164 10.0533 255.339C10.0662 255.487 10.0662 255.635 10.0533 255.783C10.0132 255.783 9.98763 255.149 9.73238 254.162C9.65945 253.918 9.59017 253.648 9.48078 253.368C9.37547 253.068 9.25374 252.775 9.11614 252.49C8.7962 251.833 8.40359 251.215 7.94565 250.646C7.47804 250.086 6.95247 249.577 6.3777 249.127C6.12588 248.931 5.86422 248.749 5.59373 248.58C5.35842 248.429 5.11496 248.29 4.86445 248.165C3.97838 247.695 3.3512 247.516 3.37673 247.484Z" fill="#263238"/>
<path d="M235.433 207.731H33.124V237.392H235.433V207.731Z" fill="#E8505B"/>
<path d="M235.433 207.731H33.124V237.392H235.433V207.731Z" fill="#295EAC"/>
<path d="M61.622 256.636C72.3717 255.913 80.4997 246.62 79.7763 235.879C79.0528 225.139 69.752 217.017 59.0022 217.74C48.2525 218.463 40.1245 227.756 40.848 238.497C41.5714 249.238 50.8722 257.359 61.622 256.636Z" fill="#263238"/>
<path d="M40.8072 236.863C40.8072 236.881 40.8072 236.896 40.8072 236.914C40.7327 242.084 42.7167 247.071 46.3225 250.779C49.9283 254.487 54.8607 256.612 60.0346 256.687C65.2085 256.761 70.2001 254.779 73.9112 251.176C77.6224 247.573 79.7491 242.645 79.8235 237.475C79.8235 237.475 79.8235 237.443 79.8235 237.424L40.8072 236.863Z" fill="#263238"/>
<path d="M46.6158 236.998C46.5756 239.705 47.3398 242.362 48.8115 244.635C50.2833 246.907 52.3965 248.693 54.884 249.765C57.3714 250.838 60.1213 251.149 62.7858 250.66C65.4503 250.17 67.9097 248.902 69.8529 247.016C71.7962 245.13 73.1359 242.711 73.7028 240.064C74.2696 237.417 74.038 234.662 73.0374 232.146C72.0367 229.631 70.3119 227.468 68.0811 225.932C65.8503 224.397 63.2137 223.556 60.5048 223.518C56.8742 223.466 53.3717 224.857 50.7672 227.385C48.1628 229.913 46.6695 233.371 46.6158 236.998Z" fill="#FAFAFA"/>
<path d="M60.5048 223.514C56.8739 223.462 53.3708 224.852 50.7662 227.38C48.1615 229.908 46.6685 233.367 46.6157 236.994L74.0037 237.388C74.0293 235.591 73.7004 233.807 73.0358 232.138C72.3712 230.468 71.384 228.946 70.1305 227.657C68.8769 226.369 67.3817 225.34 65.7301 224.629C64.0785 223.918 62.3029 223.539 60.5048 223.514Z" fill="#E0E0E0"/>
<path d="M51.9684 237.075C51.9412 238.724 52.4043 240.344 53.2991 241.73C54.1939 243.117 55.4803 244.206 56.9953 244.862C58.5103 245.517 60.1859 245.709 61.8099 245.412C63.4339 245.116 64.9334 244.345 66.1185 243.196C67.3036 242.048 68.1211 240.574 68.4675 238.961C68.8138 237.348 68.6735 235.669 68.0642 234.136C67.455 232.603 66.4042 231.285 65.0449 230.349C63.6855 229.413 62.0788 228.9 60.428 228.877C58.2188 228.845 56.087 229.69 54.5009 231.227C52.9147 232.764 52.0039 234.867 51.9684 237.075Z" fill="#263238"/>
<path d="M210.632 256.62C221.388 255.996 229.602 246.779 228.978 236.032C228.354 225.285 219.128 217.078 208.372 217.702C197.616 218.325 189.403 227.543 190.027 238.29C190.651 249.037 199.876 257.243 210.632 256.62Z" fill="#263238"/>
<path d="M189.981 236.863C189.981 236.881 189.981 236.896 189.981 236.914C189.906 242.084 191.89 247.071 195.496 250.779C199.102 254.487 204.034 256.612 209.208 256.687C214.382 256.761 219.373 254.779 223.085 251.176C226.796 247.573 228.922 242.645 228.997 237.475C228.997 237.475 228.997 237.443 228.997 237.424L189.981 236.863Z" fill="#263238"/>
<path d="M195.79 236.998C195.749 239.704 196.514 242.362 197.985 244.634C199.457 246.907 201.57 248.692 204.057 249.765C206.544 250.837 209.294 251.149 211.958 250.66C214.623 250.171 217.082 248.903 219.025 247.018C220.969 245.132 222.309 242.713 222.876 240.066C223.443 237.419 223.212 234.664 222.212 232.149C221.212 229.633 219.488 227.471 217.258 225.934C215.027 224.398 212.391 223.557 209.682 223.518C206.051 223.465 202.548 224.856 199.942 227.384C197.337 229.912 195.843 233.37 195.79 236.998Z" fill="#FAFAFA"/>
<path d="M209.682 223.51C206.051 223.459 202.548 224.85 199.943 227.377C197.338 229.905 195.844 233.363 195.79 236.991L223.178 237.384C223.228 233.757 221.835 230.257 219.304 227.656C216.774 225.054 213.313 223.563 209.682 223.51Z" fill="#E0E0E0"/>
<path d="M201.142 237.074C201.119 238.723 201.585 240.342 202.482 241.726C203.379 243.109 204.667 244.196 206.182 244.849C207.698 245.502 209.373 245.691 210.996 245.392C212.618 245.093 214.116 244.321 215.299 243.171C216.483 242.022 217.298 240.548 217.643 238.936C217.988 237.324 217.847 235.645 217.237 234.113C216.627 232.581 215.576 231.264 214.217 230.329C212.858 229.394 211.252 228.882 209.602 228.859C208.507 228.843 207.419 229.043 206.401 229.447C205.383 229.851 204.454 230.452 203.669 231.215C202.883 231.978 202.255 232.888 201.822 233.894C201.389 234.899 201.158 235.98 201.142 237.074Z" fill="#263238"/>
<path d="M85.88 191.045C85.88 191.045 57.1537 193.165 46.499 195.548C38.9947 197.231 24.5259 200.131 24.7009 209.229L25.8495 215.75C25.8495 215.75 20.4893 218.199 20.4893 224.447C20.4893 230.695 19.1803 240.394 31.7092 240.78C33.7731 240.845 37.693 240.78 37.693 240.78C37.693 240.78 35.29 214.122 59.801 213.342C84.7387 212.548 83.0832 240.536 83.0832 240.536H187.158C187.158 240.536 182.885 213.269 209.73 213.211C236.574 213.153 232.49 240.696 232.49 240.696C232.49 240.696 242.365 241.552 246.963 233.256C251.561 224.961 250.361 219.047 250.361 219.047L250.208 213.808C250.179 212.948 249.824 212.131 249.215 211.522C248.605 210.913 247.787 210.558 246.926 210.529C246.926 210.529 248.72 197.33 245.967 195.045C243.214 192.761 228.129 178.982 228.129 178.982L228.858 178.53C229.129 178.36 229.346 178.116 229.483 177.828C229.621 177.54 229.674 177.218 229.635 176.901C229.597 176.584 229.47 176.284 229.267 176.036C229.065 175.789 228.797 175.604 228.494 175.502C222.765 173.531 211.44 169.64 208.778 168.708C208.379 168.569 207.963 168.482 207.542 168.449C205.952 168.329 201.452 168.041 193.197 167.953C183.133 167.848 143.19 167.953 143.19 167.953C143.19 167.953 129.443 169.083 121.786 172.453C113.757 176.012 85.88 191.045 85.88 191.045Z" fill="#63A7EA"/>
<g opacity="0.4">
<path d="M27.7819 223.725C26.739 223.514 25.1419 223.492 24.347 224.199C23.7562 224.724 23.6177 225.573 23.5119 226.356C23.3444 227.428 23.3691 228.521 23.5849 229.584C23.6944 230.116 23.9129 230.62 24.2266 231.064C24.5404 231.508 24.9426 231.882 25.4081 232.163C26.3598 232.681 27.6652 232.593 28.4054 231.799C29.0836 231.07 29.1602 229.977 29.1347 229.001C29.1091 227.595 29.2222 226.407 28.9633 225.022C28.9055 224.731 28.7807 224.456 28.5986 224.221C28.5078 224.079 28.3855 223.961 28.2413 223.874C28.0972 223.788 27.9349 223.735 27.7673 223.722" fill="black"/>
</g>
<path d="M25.8566 215.761C28.905 215.761 31.8622 215.594 34.9069 215.397C35.0913 215.43 35.2813 215.416 35.4586 215.355C35.6359 215.294 35.7946 215.189 35.9194 215.049C36.0442 214.91 36.131 214.74 36.1715 214.557C36.2119 214.375 36.2047 214.184 36.1504 214.005C36.1504 212.373 36.0847 210.518 34.845 209.455C34.0865 208.802 33.0473 208.602 32.0555 208.507C29.5822 208.242 27.0808 208.49 24.708 209.236L25.8566 215.761Z" fill="#FAFAFA"/>
<path d="M89.1762 239.702C89.1762 239.702 89.1762 239.614 89.1543 239.443C89.1325 239.272 89.1252 239.009 89.1033 238.678C89.0668 238 89.0121 237.009 88.9429 235.738C88.8736 234.466 88.7861 232.899 88.6037 231.092C88.4155 229.046 88.0556 227.019 87.528 225.033C86.8625 222.633 85.8751 220.334 84.5927 218.199C83.139 215.736 81.209 213.587 78.9153 211.877C73.9963 208.38 67.3489 206.412 60.3953 206.318C53.4416 206.223 46.8016 208.434 42.0029 212.118C39.7017 213.817 37.6856 215.871 36.0301 218.202C34.5873 220.228 33.4131 222.433 32.5369 224.76C31.8224 226.685 31.3329 228.687 31.0783 230.724C30.8749 232.263 30.8151 233.817 30.8997 235.366C30.959 236.344 31.0808 237.318 31.2643 238.281C31.3226 238.608 31.37 238.86 31.3992 239.035C31.4284 239.21 31.4393 239.293 31.4393 239.293C31.4393 239.293 31.4174 239.21 31.381 239.038C31.3445 238.867 31.2935 238.616 31.2278 238.288C31.0292 237.327 30.8976 236.353 30.834 235.373C30.7349 233.82 30.7837 232.261 30.9799 230.717C31.2326 228.668 31.722 226.656 32.4384 224.72C33.3106 222.373 34.4849 220.149 35.9317 218.104C37.5907 215.753 39.6143 213.682 41.9263 211.969C46.7469 208.271 53.4125 206.052 60.4208 206.139C67.4292 206.227 74.0875 208.212 79.0466 211.746C81.356 213.472 83.2963 215.643 84.7532 218.129C86.0325 220.28 87.0139 222.594 87.6703 225.008C88.1914 227.003 88.5428 229.038 88.7204 231.092C88.8918 232.914 88.9684 234.466 89.0267 235.745C89.0851 237.024 89.1252 238.007 89.1543 238.689C89.1543 239.02 89.1762 239.275 89.1835 239.454C89.1908 239.632 89.1762 239.702 89.1762 239.702Z" fill="white"/>
<path d="M90.281 240.171V239.953L90.2591 239.304C90.2591 238.732 90.2153 237.887 90.1789 236.787C90.1169 234.579 90.0257 231.344 89.909 227.234C89.7923 223.124 89.6574 218.126 89.5006 212.406C89.4642 210.975 89.424 209.499 89.3803 207.979C89.3547 207.205 89.3889 206.43 89.4824 205.662C89.5371 205.276 89.5918 204.882 89.6465 204.489C89.7012 204.095 89.8069 203.709 89.8908 203.315C90.6738 200.015 92.1353 196.913 94.1826 194.207L112.207 182.862L117.071 179.801C118.711 178.703 120.433 177.733 122.223 176.901C124.045 176.05 125.914 175.305 127.821 174.668C128.776 174.333 129.757 174.056 130.738 173.764C131.719 173.473 132.718 173.233 133.731 173.036C137.553 172.215 141.439 171.728 145.345 171.578C149.093 171.395 152.848 171.408 156.594 171.615H156.7L156.678 171.721C154.95 179.433 153.323 186.706 151.832 193.369C150.937 194.836 150.204 196.394 149.644 198.018C149.093 199.56 148.846 201.195 148.915 202.831C149.039 204.43 149.083 205.997 149.123 207.513C149.163 209.028 149.181 210.507 149.21 211.936C149.294 217.656 149.316 222.647 149.331 226.757C149.345 230.866 149.331 234.094 149.331 236.302C149.331 237.395 149.331 238.248 149.331 238.82C149.331 239.104 149.331 239.319 149.331 239.465C149.331 239.61 149.331 239.683 149.331 239.683C149.331 239.683 149.331 239.61 149.331 239.465C149.331 239.319 149.331 239.1 149.331 238.82C149.331 238.248 149.331 237.402 149.331 236.302C149.331 234.116 149.298 230.866 149.276 226.757C149.254 222.647 149.21 217.648 149.115 211.939C149.084 210.511 149.052 209.037 149.021 207.516C148.977 206.001 148.929 204.441 148.802 202.842C148.728 201.186 148.976 199.532 149.531 197.971C150.086 196.332 150.82 194.76 151.719 193.282V193.307C153.203 186.64 154.826 179.368 156.543 171.659L156.627 171.768C152.889 171.565 149.143 171.554 145.403 171.735C141.507 171.888 137.631 172.375 133.819 173.192C132.809 173.393 131.824 173.673 130.836 173.921C129.848 174.169 128.882 174.486 127.919 174.821C126.02 175.456 124.158 176.198 122.344 177.043C120.564 177.864 118.85 178.82 117.217 179.903L112.345 182.964L94.3102 194.295C93.2651 195.656 92.3748 197.13 91.6556 198.688C90.9557 200.173 90.4131 201.726 90.0366 203.323C89.2162 206.445 89.6319 209.516 89.6355 212.38C89.7778 218.1 89.9017 223.091 90.0002 227.208C90.0986 231.325 90.1752 234.55 90.2263 236.761C90.2518 237.854 90.27 238.707 90.281 239.279C90.281 239.563 90.281 239.778 90.281 239.927C90.281 240.077 90.281 240.171 90.281 240.171Z" fill="#263238"/>
<path d="M156.5 172.22H156.671L157.17 172.201L159.107 172.154L166.286 172.012L190.491 171.6H190.539L190.568 171.637L193.959 175.783L203.644 187.649L204.738 189.001C205.788 190.314 206.362 191.943 206.368 193.624C206.376 194.647 206.176 195.661 205.78 196.604L204.687 199.155C203.275 202.434 202.134 205.057 201.339 206.893C200.942 207.797 200.632 208.504 200.42 208.992L200.176 209.535C200.121 209.658 200.088 209.72 200.088 209.72C200.088 209.72 200.11 209.651 200.158 209.527C200.205 209.403 200.289 209.214 200.384 208.977C200.592 208.485 200.887 207.775 201.27 206.864L204.552 199.104C205.179 197.457 206.284 195.723 206.207 193.61C206.191 192.536 205.942 191.478 205.478 190.509C205.234 190.006 204.936 189.53 204.588 189.092L203.494 187.744L193.795 175.889L190.411 171.742L190.484 171.779L166.275 172.143L159.096 172.227H157.16H156.5V172.22Z" fill="#263238"/>
<path d="M144.262 204.379C144.262 204.379 144.364 204.379 144.55 204.339C144.824 204.291 145.084 204.187 145.316 204.033C145.683 203.791 145.958 203.433 146.096 203.017C146.18 202.758 146.215 202.486 146.198 202.215C146.19 201.914 146.113 201.619 145.972 201.352C145.809 201.047 145.567 200.791 145.272 200.611C144.976 200.43 144.638 200.333 144.291 200.328H141.834H136.2C135.732 200.329 135.28 200.501 134.931 200.813C134.582 201.125 134.36 201.554 134.308 202.019C134.248 202.462 134.33 202.914 134.541 203.308C134.75 203.68 135.077 203.971 135.471 204.135C135.861 204.269 136.275 204.319 136.685 204.281H137.877H140.021L143.125 204.31L143.967 204.328C144.065 204.321 144.164 204.321 144.262 204.328C144.164 204.339 144.065 204.339 143.967 204.328L143.125 204.347L140.021 204.379H137.877H136.685C136.477 204.379 136.277 204.379 136.054 204.379C135.831 204.364 135.612 204.314 135.405 204.23C134.973 204.053 134.612 203.736 134.381 203.33C134.149 202.904 134.058 202.416 134.122 201.935C134.179 201.424 134.422 200.951 134.806 200.608C135.189 200.265 135.685 200.074 136.2 200.073H141.834H144.295C144.667 200.081 145.029 200.189 145.345 200.385C145.661 200.581 145.918 200.858 146.089 201.188C146.235 201.476 146.314 201.794 146.319 202.117C146.331 202.401 146.29 202.685 146.198 202.955C146.045 203.388 145.748 203.756 145.356 203.997C145.114 204.149 144.841 204.244 144.558 204.277C144.464 204.325 144.365 204.359 144.262 204.379Z" fill="#263238"/>
<path d="M198.203 204.379C198.203 204.379 198.305 204.379 198.491 204.339C198.766 204.29 199.027 204.186 199.261 204.033C199.625 203.79 199.898 203.432 200.037 203.017C200.121 202.758 200.155 202.486 200.139 202.215C200.131 201.914 200.054 201.619 199.913 201.352C199.75 201.047 199.508 200.791 199.213 200.611C198.917 200.43 198.579 200.333 198.232 200.328H195.775H190.141C189.673 200.329 189.221 200.501 188.872 200.813C188.523 201.125 188.301 201.554 188.249 202.019C188.189 202.462 188.27 202.914 188.482 203.308C188.691 203.68 189.018 203.971 189.412 204.135C189.802 204.269 190.215 204.319 190.626 204.281H191.818H193.962L197.065 204.31L197.908 204.328C198.006 204.321 198.105 204.321 198.203 204.328C198.105 204.339 198.006 204.339 197.908 204.328L197.065 204.347L193.962 204.379H191.818H190.626C190.418 204.379 190.218 204.379 189.995 204.379C189.772 204.364 189.553 204.314 189.346 204.23C188.914 204.053 188.553 203.736 188.321 203.33C188.092 202.903 188.001 202.415 188.063 201.935C188.12 201.424 188.363 200.951 188.747 200.608C189.13 200.265 189.626 200.074 190.141 200.073H195.775H198.236C198.608 200.081 198.97 200.189 199.286 200.385C199.602 200.581 199.859 200.858 200.03 201.188C200.176 201.476 200.255 201.794 200.26 202.117C200.272 202.401 200.231 202.685 200.139 202.955C199.986 203.388 199.689 203.756 199.297 203.997C199.055 204.149 198.782 204.244 198.499 204.277C198.405 204.325 198.306 204.359 198.203 204.379Z" fill="#263238"/>
<path d="M245.504 195.584H234.711C233.986 195.584 233.274 195.783 232.653 196.158C232.032 196.533 231.526 197.07 231.189 197.712C230.909 198.242 230.753 198.828 230.732 199.427C230.711 200.026 230.826 200.622 231.068 201.17L235.298 210.773L246.106 210.668C246.106 210.668 248.407 198.492 245.504 195.584Z" fill="#FAFAFA"/>
<path d="M95.605 194.225L151.296 193.202L187.541 192.538L199.494 185.642C199.722 185.51 199.919 185.331 200.073 185.117C200.226 184.903 200.333 184.659 200.385 184.401C200.437 184.143 200.433 183.877 200.375 183.621C200.316 183.364 200.204 183.123 200.045 182.913L192.599 173.134C192.217 172.631 191.724 172.223 191.159 171.94C190.594 171.657 189.971 171.507 189.339 171.502L148.798 171.17C148.798 171.17 133.535 170.285 121.509 177C108.852 184.111 95.605 194.225 95.605 194.225Z" fill="#263238"/>
<path d="M121.129 172.194C121.129 172.194 123.919 173.466 122.103 174.646C120.287 175.827 92.0714 193.592 92.0714 193.592L85.5845 190.677C97.0633 184.268 108.677 178.056 121.129 172.194Z" fill="#455A64"/>
<path d="M92.9831 194.043C92.9831 194.043 92.9248 194.061 92.8081 194.087L92.294 194.2L90.314 194.608C88.5929 194.95 86.0988 195.431 83.0212 195.96C76.8224 197.023 68.246 198.266 58.7034 199.089C56.3151 199.297 53.985 199.454 51.7316 199.614C49.4781 199.774 47.3048 199.898 45.241 200.087C41.1096 200.452 37.4122 201.049 34.4076 201.942C32.024 202.61 29.7306 203.566 27.5779 204.787C26.8012 205.195 26.2469 205.596 25.8568 205.84L25.4119 206.121L25.2588 206.212C25.3041 206.173 25.3515 206.136 25.401 206.103L25.8349 205.807C26.2214 205.556 26.7684 205.144 27.5414 204.714C29.6871 203.461 31.9815 202.482 34.3711 201.8C37.3794 200.885 41.0878 200.27 45.2228 199.898C47.2903 199.705 49.4635 199.563 51.717 199.413C53.9704 199.264 56.3005 199.093 58.6852 198.885C68.2242 198.062 76.8114 196.845 82.9993 195.814C86.0951 195.3 88.5893 194.841 90.3176 194.52L92.3013 194.156L92.8191 194.065C92.8733 194.055 92.9281 194.048 92.9831 194.043Z" fill="#263238"/>
<path d="M249.818 218.96C249.818 219.011 246.106 219.055 241.53 219.055C236.953 219.055 233.238 219.011 233.238 218.96C233.238 218.909 236.95 218.865 241.53 218.865C246.11 218.865 249.818 218.909 249.818 218.96Z" fill="#263238"/>
<path d="M181.911 228.425C181.911 228.476 160.959 228.52 135.117 228.52C109.275 228.52 88.312 228.476 88.312 228.425C88.312 228.374 109.261 228.331 135.11 228.331C160.959 228.331 181.911 228.374 181.911 228.425Z" fill="#263238"/>
<path d="M35.2025 219.273C35.2025 219.324 32.238 219.368 28.5843 219.368C24.9306 219.368 21.9697 219.324 21.9697 219.273C21.9697 219.222 24.9306 219.178 28.5843 219.178C32.238 219.178 35.2025 219.222 35.2025 219.273Z" fill="#263238"/>
<path d="M227.848 178.617C227.848 178.617 225.362 181.401 226.339 183.441C227.316 185.481 237.42 192.63 237.42 192.63L244.753 194.003L227.848 178.617Z" fill="#455A64"/>
<path d="M158.13 173.641L156.481 191.431L185.988 190.589L197.879 183.685L190.181 173.641H158.13Z" fill="#455A64"/>
<path d="M102.591 192.342C102.591 192.342 120.393 179.499 127.416 176.945C134.195 174.482 137.728 173.863 144.095 173.666C150.18 173.495 153.889 173.666 153.889 173.666L149.185 191.755L102.591 192.342Z" fill="#455A64"/>
<path d="M99.9805 192.404C99.98 191.851 100.127 191.307 100.406 190.829C100.686 190.352 101.088 189.957 101.57 189.686L105.662 187.391C106.827 186.735 108.142 186.391 109.479 186.392C110.303 186.392 111.122 186.522 111.904 186.779C112.757 187.072 113.499 187.619 114.032 188.345C114.565 189.072 114.863 189.944 114.887 190.844C114.91 191.45 114.811 192.054 114.596 192.62C114.38 193.186 114.052 193.703 113.631 194.14C113.211 194.576 112.706 194.923 112.148 195.16C111.59 195.397 110.99 195.519 110.384 195.519H103.091C102.265 195.517 101.474 195.188 100.891 194.604C100.308 194.02 99.9805 193.229 99.9805 192.404Z" fill="#295EAC"/>
<path d="M99.9805 192.404C99.9805 192.404 99.9805 192.539 100.028 192.797C100.083 193.172 100.207 193.534 100.393 193.865C100.688 194.384 101.122 194.811 101.647 195.096C101.974 195.27 102.33 195.383 102.697 195.428C103.116 195.459 103.536 195.467 103.955 195.453L110.19 195.431C110.782 195.446 111.37 195.349 111.926 195.147C112.503 194.931 113.028 194.597 113.468 194.167C113.926 193.723 114.28 193.185 114.508 192.59C114.737 191.975 114.831 191.317 114.781 190.662C114.735 190.014 114.547 189.384 114.228 188.817C113.91 188.25 113.47 187.76 112.94 187.383C112.429 187.038 111.855 186.797 111.251 186.673C109.589 186.28 107.842 186.448 106.285 187.15C105.815 187.358 105.384 187.624 104.958 187.857L103.74 188.531L101.643 189.693C101.116 189.977 100.68 190.405 100.389 190.928C100.205 191.258 100.082 191.619 100.024 191.992C99.9878 192.251 99.9914 192.389 99.9805 192.389C99.9668 192.256 99.9668 192.122 99.9805 191.989C100.021 191.606 100.135 191.235 100.316 190.896C100.602 190.35 101.042 189.901 101.581 189.602L103.663 188.418L104.874 187.733C105.297 187.5 105.727 187.23 106.209 187.004C107.795 186.275 109.58 186.095 111.281 186.494C111.909 186.62 112.506 186.867 113.038 187.223C113.588 187.614 114.046 188.121 114.378 188.709C114.71 189.296 114.909 189.95 114.96 190.622C115.013 191.304 114.916 191.989 114.675 192.63C114.441 193.24 114.079 193.793 113.614 194.252C113.148 194.711 112.59 195.066 111.977 195.293C111.401 195.501 110.791 195.598 110.179 195.581L103.94 195.559C103.516 195.569 103.091 195.557 102.668 195.523C102.284 195.469 101.913 195.346 101.574 195.158C101.056 194.861 100.631 194.425 100.345 193.901C100.167 193.561 100.054 193.19 100.013 192.808C99.9906 192.675 99.9796 192.539 99.9805 192.404Z" fill="#263238"/>
<path d="M237.136 239.869C237.136 239.869 237.136 239.781 237.136 239.614C237.136 239.446 237.165 239.195 237.187 238.885C237.209 238.576 237.245 238.157 237.267 237.683C237.289 237.209 237.304 236.659 237.326 236.04C237.347 235.42 237.326 234.736 237.326 233.981C237.326 233.227 237.271 232.411 237.169 231.54C237.003 229.557 236.65 227.595 236.115 225.678C235.801 224.561 235.412 223.465 234.952 222.399C234.463 221.246 233.875 220.138 233.194 219.087C231.674 216.773 229.741 214.757 227.491 213.142C225.015 211.346 222.25 209.984 219.316 209.116C216.275 208.183 212.964 207.844 209.595 207.822C206.308 207.79 203.037 208.266 199.895 209.232C198.407 209.7 196.963 210.296 195.578 211.014C194.257 211.714 193.003 212.532 191.83 213.459C189.642 215.174 187.693 217.173 186.035 219.404C185.309 220.423 184.667 221.501 184.117 222.625C183.616 223.666 183.173 224.734 182.79 225.824C181.623 229.119 180.914 232.559 180.683 236.047C180.624 237.282 180.632 238.233 180.664 238.893C180.683 239.213 180.697 239.461 180.704 239.621C180.712 239.782 180.704 239.876 180.704 239.876C180.704 239.876 180.704 239.792 180.675 239.625C180.646 239.457 180.642 239.206 180.613 238.896C180.565 237.946 180.565 236.994 180.613 236.043C180.814 232.543 181.505 229.089 182.666 225.78C183.048 224.683 183.49 223.608 183.99 222.56C184.541 221.426 185.183 220.339 185.912 219.31C187.569 217.074 189.517 215.07 191.706 213.349C192.886 212.414 194.15 211.587 195.48 210.879C196.873 210.155 198.326 209.553 199.822 209.079C202.982 208.105 206.274 207.625 209.58 207.658C212.964 207.68 216.29 208.023 219.356 208.963C222.317 209.832 225.106 211.201 227.604 213.01C228.757 213.859 229.835 214.803 230.828 215.834C231.769 216.805 232.608 217.87 233.333 219.011C234.017 220.07 234.606 221.186 235.094 222.348C235.553 223.414 235.939 224.509 236.25 225.627C236.782 227.552 237.128 229.524 237.282 231.515C237.38 232.393 237.38 233.213 237.42 233.967C237.461 234.721 237.42 235.424 237.42 236.029C237.42 236.634 237.366 237.195 237.347 237.672C237.329 238.149 237.275 238.55 237.249 238.874C237.223 239.199 237.194 239.443 237.18 239.603C237.165 239.763 237.136 239.869 237.136 239.869Z" fill="white"/>
<path d="M148.404 194.225C148.404 194.225 148.379 194.225 148.321 194.225H148.073L147.125 194.247L143.624 194.309C140.674 194.364 136.594 194.473 132.087 194.593C127.58 194.714 123.5 194.805 120.546 194.826C119.088 194.826 117.873 194.826 117.046 194.826H116.097H115.85C115.791 194.826 115.766 194.826 115.766 194.826H115.85H116.097L117.046 194.805L120.542 194.743C123.496 194.688 127.576 194.579 132.083 194.455C136.59 194.331 140.67 194.247 143.624 194.225C145.083 194.225 146.297 194.225 147.121 194.225H148.073H148.321H148.404Z" fill="white"/>
<path d="M143.57 199.705C141.442 199.831 139.309 199.831 137.181 199.705C139.309 199.579 141.442 199.579 143.57 199.705Z" fill="white"/>
<path d="M144.744 180.21C144.744 180.257 140.798 181.908 135.887 183.893C130.975 185.879 126.964 187.449 126.964 187.402C126.964 187.354 130.909 185.704 135.821 183.718C140.733 181.733 144.725 180.159 144.744 180.21Z" fill="white"/>
<path d="M136.707 181.452C136.729 181.499 132.951 183.164 128.273 185.165C123.594 187.165 119.788 188.75 119.766 188.702C119.744 188.655 123.522 186.993 128.2 184.99C132.878 182.986 136.689 181.405 136.707 181.452Z" fill="white"/>
<path d="M187.669 179.517C187.691 179.568 183.723 181.219 178.812 183.204C173.9 185.19 169.904 186.76 169.885 186.713C169.867 186.666 173.831 185.015 178.742 183.026C183.654 181.037 187.651 179.47 187.669 179.517Z" fill="white"/>
<path d="M179.632 180.763C179.654 180.811 175.88 182.472 171.202 184.476C166.523 186.48 162.698 188.072 162.698 188.013C162.698 187.955 166.454 186.301 171.132 184.301C175.811 182.301 179.614 180.716 179.632 180.763Z" fill="white"/>
<path d="M188.446 194.222C188.446 194.276 180.559 194.364 170.83 194.422C161.101 194.48 153.214 194.484 153.214 194.422C153.214 194.36 161.098 194.28 170.83 194.222C180.562 194.163 188.446 194.171 188.446 194.222Z" fill="white"/>
<path d="M197.179 199.399C197.179 199.454 194.969 199.516 192.238 199.541C189.507 199.567 187.297 199.541 187.297 199.494C187.297 199.446 189.507 199.366 192.234 199.366C194.962 199.366 197.179 199.366 197.179 199.399Z" fill="white"/>
<path d="M46.1636 196.707C46.0941 196.73 46.0217 196.743 45.9485 196.747L45.3322 196.831C45.0624 196.86 44.7342 196.9 44.355 196.962C43.9758 197.024 43.5419 197.078 43.0678 197.173C42.1161 197.337 40.9894 197.588 39.7569 197.902C38.5244 198.215 37.1862 198.67 35.8152 199.202C34.4441 199.734 33.1715 200.343 32.0338 200.929C30.8962 201.516 29.9116 202.106 29.1167 202.631C28.7047 202.882 28.3473 203.137 28.0228 203.359C27.6983 203.582 27.4321 203.764 27.2133 203.924L26.7065 204.288C26.6484 204.333 26.5861 204.372 26.5205 204.405C26.5685 204.349 26.6237 204.3 26.6846 204.259L27.1696 203.869C27.3811 203.698 27.6436 203.505 27.9608 203.276C28.2781 203.046 28.6245 202.791 29.0365 202.547C29.8387 202.008 30.8305 201.41 31.9536 200.802C33.1857 200.153 34.4516 199.57 35.7459 199.057C37.0439 198.554 38.3682 198.122 39.7131 197.763C40.9529 197.443 42.0869 197.206 43.0459 197.056C43.5236 196.969 43.9575 196.922 44.3404 196.871C44.7233 196.82 45.0697 196.79 45.3249 196.769L45.9448 196.725C46.0169 196.711 46.0902 196.705 46.1636 196.707Z" fill="white"/>
<path d="M111.285 188.112C111.285 188.112 111.179 187.97 110.92 187.773C110.571 187.503 110.155 187.334 109.717 187.285C109.061 187.233 108.402 187.305 107.773 187.496C105.552 188.054 103.488 189.115 101.742 190.597C100.874 191.325 100.415 191.861 100.389 191.835C100.477 191.696 100.58 191.567 100.695 191.449C100.996 191.113 101.317 190.794 101.654 190.495C102.766 189.501 104.031 188.693 105.399 188.101C106.152 187.776 106.932 187.516 107.729 187.325C108.38 187.137 109.062 187.079 109.735 187.154C110.192 187.217 110.62 187.412 110.967 187.715C111.06 187.798 111.142 187.892 111.212 187.995C111.285 188.072 111.285 188.108 111.285 188.112Z" fill="white"/>
<path d="M228.676 178.49C228.167 178.61 227.645 178.663 227.123 178.647C226.509 178.632 225.899 178.557 225.3 178.424C224.508 178.238 223.732 177.995 222.977 177.696C222.138 177.379 221.237 176.967 220.267 176.563L218.754 175.951C218.233 175.747 217.682 175.564 217.128 175.364C214.694 174.539 212.213 173.862 209.697 173.338C205.122 172.384 200.477 171.807 195.808 171.611C194.91 171.564 194.101 171.564 193.39 171.542H191.567L190.415 171.568H190.112C190.078 171.573 190.044 171.573 190.01 171.568H190.112H190.411L191.567 171.506L193.39 171.473C194.119 171.473 194.914 171.473 195.811 171.513C200.493 171.669 205.152 172.23 209.737 173.189C212.26 173.716 214.748 174.398 217.186 175.233C217.744 175.44 218.28 175.623 218.816 175.834L220.329 176.453C221.299 176.876 222.193 177.284 223.028 177.608C223.774 177.905 224.541 178.148 225.321 178.337C225.912 178.478 226.516 178.564 227.123 178.592C227.506 178.606 227.89 178.592 228.271 178.548L228.57 178.512L228.676 178.49Z" fill="#263238"/>
</g>
<defs>
<clipPath id="clip0_358_1182">
<rect width="250" height="257" fill="white" transform="translate(0.5)"/>
</clipPath>
</defs>
</svg>
