<svg width="48" height="48" viewBox="0 0 48 48" fill="none" xmlns="http://www.w3.org/2000/svg">
<circle cx="24" cy="24" r="24" fill="#EA4335"/>
<path d="M34.9185 23.2515C34.9096 22.4475 34.9066 21.6376 34.9037 20.8306H32.4977C32.4888 21.6346 32.4828 22.4415 32.4769 23.2515C31.6669 23.2544 30.863 23.2604 30.059 23.2693V25.6783C30.863 25.6872 31.6729 25.6931 32.4769 25.7021C32.4858 26.506 32.4858 27.313 32.4918 28.1169H34.9007C34.9037 27.313 34.9096 26.506 34.9156 25.6961C35.7255 25.6872 36.5294 25.6842 37.3334 25.6753V23.2664C36.5324 23.2604 35.7225 23.2604 34.9185 23.2515ZM19.137 23.2634C19.134 24.2252 19.137 25.1899 19.14 26.1517C20.7538 26.2053 22.3707 26.1815 23.9846 26.2053C23.2729 29.7874 18.4045 30.9487 15.8288 28.6083C13.1787 26.5567 13.3038 22.0574 16.0581 20.1517C17.9846 18.6153 20.7211 18.9934 22.6476 20.3244C23.404 19.6247 24.1126 18.8743 24.7945 18.1001C23.1925 16.8227 21.2273 15.9116 19.137 16.0068C14.7717 15.8609 10.7608 19.6842 10.6894 24.0525C10.4095 27.6227 12.7559 31.1214 16.067 32.3839C19.3663 33.6554 23.5975 32.7889 25.7057 29.8231C27.0962 27.9502 27.397 25.5383 27.2332 23.2723C24.5325 23.2515 21.8347 23.2544 19.137 23.2634Z" fill="white"/>
</svg>
