<svg width="171" height="119" viewBox="0 0 171 119" fill="none" xmlns="http://www.w3.org/2000/svg">
<path d="M22.7886 89.3199C35.3744 89.3199 45.5772 78.7943 45.5772 65.8103C45.5772 52.8264 35.3744 42.3008 22.7886 42.3008C10.2028 42.3008 0 52.8264 0 65.8103C0 78.7943 10.2028 89.3199 22.7886 89.3199Z" fill="#63A7EA"/>
<path d="M60.1462 9.05803C60.7011 12.6816 60.5237 17.0237 58.7759 19.4576C57.0924 21.8136 54.6029 21.5664 52.4116 21.0153C50.2203 20.4643 47.8233 19.8178 45.9076 21.6287C43.7578 23.6478 42.9632 28.0328 42.5933 32.0419C42.2233 36.051 42.027 40.3639 40.4945 43.5397C40.3214 43.8994 40.1273 44.2479 39.9131 44.5833C32.2333 41.3219 26.7956 33.5022 26.7956 24.4423V21.765C26.7956 9.79404 36.2855 0 47.8931 0H58.3833C58.9137 3.02583 59.6857 5.99325 60.1462 9.05803Z" fill="#63A7EA"/>
<path d="M148.297 42.4045C148.139 42.4045 147.984 42.4045 147.825 42.4045C143.771 42.4805 139.812 43.6839 136.365 45.8879C136.348 45.9009 136.33 45.9126 136.312 45.9229L136.165 46.0203C134.683 46.2048 133.192 46.2977 131.699 46.2987C125.649 46.3043 119.691 44.7615 114.361 41.8085C109.03 38.8556 104.493 34.5846 101.155 29.3782C101.17 29.3178 101.184 29.2575 101.197 29.1971C101.516 27.7403 101.686 26.253 101.704 24.7596C101.704 24.6506 101.704 24.5455 101.704 24.4403V21.765C101.707 18.7578 101.1 15.7833 99.9228 13.0321C96.6462 5.37602 89.206 0 80.6127 0H59.2849C73.399 13.4468 82.1905 26.917 94.957 40.3717C95.1004 40.3717 95.2344 40.3717 95.3779 40.3717C101.663 40.3696 107.843 42.0366 113.322 45.2122C118.802 48.3877 123.397 52.9649 126.665 58.5033C127.934 54.5901 130.183 51.0925 133.185 48.3646C130.233 51.0797 128.02 54.544 126.767 58.4137C126.605 58.9141 126.462 59.4282 126.328 59.9422C125.135 64.6708 125.406 69.6657 127.103 74.2274C128.799 78.7891 131.836 82.6892 135.789 85.3816C139.741 88.074 144.41 89.4237 149.143 89.2419C153.876 89.0601 158.435 87.3557 162.182 84.3676C165.929 81.3794 168.677 77.2571 170.04 72.5778C171.403 67.8986 171.313 62.8967 169.783 58.2727C168.253 53.6487 165.36 49.6341 161.508 46.7911C157.656 43.9481 153.039 42.4191 148.303 42.4181L148.297 42.4045Z" fill="#295EAC"/>
<path d="M2.85229 99.4132H15.9811V102.723H6.70639V107.099H15.4677V110.409H6.70639V115.422H15.9811V118.733H2.85229V99.4132Z" fill="#295EAC"/>
<path d="M21.2763 104.423L24.2811 114.893L27.082 104.423H30.8851L26.1062 118.733H22.3314L17.4751 104.42L21.2763 104.423Z" fill="#295EAC"/>
<path d="M38.3873 104.183C42.4736 104.183 44.8894 107.337 44.8894 112.556H35.5619C35.6638 115.34 36.7434 116.135 38.4402 116.135C39.75 116.135 40.8806 115.745 41.1882 114.703H44.7347C43.9382 117.513 41.4204 118.972 38.3175 118.972C34.3879 118.972 31.972 116.347 31.972 111.767C31.9645 106.967 34.4049 104.183 38.3873 104.183ZM41.1373 110.095C40.9485 108.054 39.8784 107.02 38.3364 107.02C36.7434 107.02 35.845 108.107 35.6128 110.095H41.1373Z" fill="#295EAC"/>
<path d="M46.6641 104.423H50.2615V105.457C51.6733 104.448 52.4698 104.183 54.1156 104.183C54.2614 104.182 54.4071 104.191 54.5516 104.211V107.974C54.178 107.904 53.799 107.869 53.4192 107.869C51.3128 107.869 50.2596 109.3 50.2596 110.492V118.732H46.6641V104.423Z" fill="#295EAC"/>
<path d="M62.7472 104.183C66.8315 104.183 69.2474 107.337 69.2474 112.556H59.9198C60.0236 115.34 61.1014 116.135 62.7981 116.135C64.108 116.135 65.2386 115.745 65.5481 114.703H69.0927C68.2962 117.513 65.7784 118.972 62.6755 118.972C58.744 118.972 56.3281 116.347 56.3281 111.767C56.3224 106.967 58.7647 104.183 62.7472 104.183ZM65.4953 110.095C65.316 108.054 64.2363 107.02 62.6943 107.02C61.1014 107.02 60.203 108.107 59.9708 110.095H65.4953Z" fill="#295EAC"/>
<path d="M74.3074 114.202C74.6151 115.74 75.4889 116.058 77.1385 116.058C78.7881 116.058 79.8111 115.713 79.8111 114.839C79.8111 114.449 79.5035 114.15 78.6032 113.865L74.3131 112.487C71.7424 111.665 71.28 110.711 71.28 108.962C71.28 106.02 73.4637 104.19 76.9857 104.19C80.7114 104.19 82.9725 106.02 83.0254 109.042H79.5488C79.5223 107.744 78.6749 107.107 76.9536 107.107C75.6947 107.107 74.8774 107.637 74.8774 108.431C74.8774 109.015 75.1341 109.255 76.1363 109.545L80.685 110.908C82.5101 111.463 83.4085 112.683 83.4085 114.327V114.522C83.4085 117.411 81.2493 119 77.3443 119C73.1297 119 70.895 117.357 70.7931 114.228L74.3074 114.202Z" fill="#295EAC"/>
<path d="M84.8941 104.715H86.6739V100.871H90.26V104.715H92.2645V107.182H90.26V114.657C90.26 115.928 90.4903 116.214 91.4415 116.214C91.7174 116.209 91.9925 116.182 92.2645 116.135V118.734C91.6208 118.761 90.9791 118.841 90.1883 118.841C87.8253 118.841 86.6683 117.912 86.6683 115.66V107.178H84.896L84.8941 104.715Z" fill="#295EAC"/>
<path d="M96.3541 99.8903H103.498C107.737 99.8903 110.564 101.559 110.564 105.51C110.564 108.584 108.56 109.935 107.48 110.255C108.97 111.049 109.715 112.905 110.123 114.708L110.406 115.954C110.595 116.856 110.893 117.915 111.408 118.499V118.733H107.531C106.965 118.096 106.761 116.904 106.452 115.975L105.836 114.147C105.553 113.298 104.757 111.522 103.06 111.522H100.053V118.727H96.3541V99.8903ZM103.472 108.479C105.502 108.479 106.786 107.63 106.786 105.753C106.786 103.899 105.553 102.918 103.498 102.918H100.053V108.485L103.472 108.479Z" fill="#295EAC"/>
<path d="M119.298 104.183C123.384 104.183 125.798 107.337 125.798 112.556H116.472C116.574 115.34 117.654 116.135 119.349 116.135C120.67 116.135 121.791 115.745 122.099 114.703H125.645C124.849 117.513 122.331 118.972 119.228 118.972C115.296 118.972 112.882 116.347 112.882 111.767C112.875 106.967 115.315 104.183 119.298 104.183ZM122.048 110.095C121.859 108.054 120.789 107.02 119.247 107.02C117.654 107.02 116.753 108.107 116.523 110.095H122.048Z" fill="#295EAC"/>
<path d="M127.573 104.423H131.17V106.49C132.197 104.9 133.456 104.183 135.322 104.183C138.278 104.183 139.973 105.986 139.973 109.14V118.732H136.376V109.906C136.376 108.21 135.605 107.334 134.063 107.334C132.316 107.334 131.161 108.447 131.161 110.143V118.732H127.563L127.573 104.423Z" fill="#295EAC"/>
<path d="M141.653 104.715H143.426V100.871H147.023V104.715H149.027V107.182H147.023V114.657C147.023 115.928 147.255 116.214 148.205 116.214C148.48 116.209 148.755 116.183 149.027 116.135V118.734C148.386 118.761 147.742 118.841 146.951 118.841C144.588 118.841 143.431 117.912 143.431 115.66V107.178H141.659L141.653 104.715Z" fill="#295EAC"/>
<path d="M154.784 110.553L156.224 110.287C158.023 109.969 159.1 110.129 159.1 108.618C159.1 107.664 158.408 107.187 157.024 107.187C155.25 107.187 154.659 107.664 154.48 109.147H151.011C151.243 105.837 153.195 104.19 156.947 104.19C160.699 104.19 162.626 105.676 162.626 108.591V116.543C162.626 117.286 162.805 117.684 163.447 118.295V118.731H159.531C159.197 118.307 159.119 117.672 159.119 116.93C157.86 118.281 156.447 118.971 154.905 118.971C152.593 118.971 150.692 117.645 150.692 114.862C150.699 112.267 152.036 111.048 154.784 110.553ZM156.248 115.986C158.074 115.986 159.1 114.767 159.1 112.619V111.984C158.691 112.197 158.534 112.249 157.59 112.434L156.358 112.674C154.867 112.964 154.303 113.363 154.303 114.449C154.303 115.536 155.041 115.978 156.248 115.978V115.986Z" fill="#295EAC"/>
<path d="M165.06 99.4132H168.658V118.733H165.06V99.4132Z" fill="#295EAC"/>
</svg>
