<svg width="140" height="98" viewBox="0 0 140 98" fill="none" xmlns="http://www.w3.org/2000/svg">
<path d="M18.6573 73.1274C28.9615 73.1274 37.3147 64.5099 37.3147 53.8798C37.3147 43.2496 28.9615 34.6322 18.6573 34.6322C8.35317 34.6322 0 43.2496 0 53.8798C0 64.5099 8.35317 73.1274 18.6573 73.1274Z" fill="white"/>
<path d="M49.2425 7.41592C49.6968 10.3826 49.5515 13.9375 48.1206 15.9302C46.7423 17.8591 44.7041 17.6567 42.91 17.2055C41.116 16.7544 39.1535 16.2251 37.5851 17.7077C35.8251 19.3608 35.1745 22.9508 34.8717 26.2331C34.5688 29.5154 34.4081 33.0464 33.1533 35.6465C33.0117 35.941 32.8527 36.2264 32.6774 36.5009C26.3898 33.8308 21.9379 27.4287 21.9379 20.0112V17.8193C21.9379 8.01851 29.7074 0 39.2107 0H47.7992C48.2334 2.47729 48.8654 4.90675 49.2425 7.41592Z" fill="white"/>
<path d="M121.413 34.7171C121.283 34.7171 121.156 34.7171 121.026 34.7171C117.707 34.7793 114.466 35.7646 111.644 37.569C111.63 37.5797 111.616 37.5893 111.6 37.5977L111.48 37.6774C110.267 37.8284 109.046 37.9046 107.824 37.9054C102.87 37.91 97.9929 36.6469 93.6287 34.2292C89.2644 31.8115 85.5497 28.3148 82.8171 24.0523C82.8295 24.0029 82.8403 23.9535 82.8511 23.9041C83.1123 22.7114 83.2516 21.4937 83.2668 20.271C83.2668 20.1818 83.2668 20.0957 83.2668 20.0096V17.8193C83.2685 15.3572 82.7717 12.922 81.8081 10.6696C79.1255 4.40142 73.0342 0 65.9987 0H48.5374C60.0927 11.0091 67.2905 22.0373 77.7425 33.0528C77.86 33.0528 77.9697 33.0528 78.0871 33.0528C83.2328 33.0511 88.2923 34.4159 92.7786 37.0158C97.2649 39.6157 101.027 43.3631 103.703 47.8974C104.742 44.6936 106.583 41.8301 109.04 39.5967C106.623 41.8196 104.812 44.6559 103.786 47.8241C103.653 48.2338 103.536 48.6546 103.426 49.0755C102.45 52.9468 102.672 57.0362 104.061 60.771C105.45 64.5057 107.936 67.6988 111.172 69.903C114.408 72.1073 118.231 73.2124 122.105 73.0635C125.98 72.9146 129.713 71.5193 132.781 69.0729C135.849 66.6264 138.098 63.2514 139.214 59.4204C140.33 55.5895 140.256 51.4944 139.004 47.7087C137.751 43.9229 135.382 40.6361 132.229 38.3085C129.075 35.9809 125.295 34.729 121.417 34.7283L121.413 34.7171Z" fill="white"/>
<path d="M2.33545 81.3909H13.0842V84.101H5.49084V87.683H12.6639V90.393H5.49084V94.4979H13.0842V97.208H2.33545V81.3909Z" fill="white"/>
<path d="M17.4194 85.4929L19.8795 94.0646L22.1726 85.4929H25.2863L21.3737 97.2082H18.2832L14.3073 85.4897L17.4194 85.4929Z" fill="white"/>
<path d="M31.4284 85.2961C34.7739 85.2961 36.7518 87.8786 36.7518 92.1509H29.1152C29.1986 94.4305 30.0825 95.0809 31.4717 95.0809C32.5441 95.0809 33.4697 94.7621 33.7216 93.9092H36.6251C35.973 96.2096 33.9116 97.4036 31.3713 97.4036C28.1541 97.4036 26.1761 95.2547 26.1761 91.5052C26.17 87.5757 28.168 85.2961 31.4284 85.2961ZM33.6799 90.1359C33.5253 88.4652 32.6492 87.6187 31.3867 87.6187C30.0825 87.6187 29.347 88.5083 29.1569 90.1359H33.6799Z" fill="white"/>
<path d="M38.2048 85.4923H41.15V86.3388C42.3059 85.513 42.958 85.2962 44.3054 85.2962C44.4248 85.2949 44.544 85.3024 44.6624 85.3186V88.4C44.3565 88.3426 44.0461 88.3138 43.7352 88.3139C42.0107 88.3139 41.1485 89.4856 41.1485 90.4613V97.2076H38.2048V85.4923Z" fill="white"/>
<path d="M51.3722 85.2961C54.7161 85.2961 56.694 87.8786 56.694 92.1509H49.0574C49.1424 94.4305 50.0247 95.0809 51.4139 95.0809C52.4863 95.0809 53.4119 94.7621 53.6653 93.9092H56.5673C55.9152 96.2096 53.8538 97.4036 51.3135 97.4036C48.0947 97.4036 46.1168 95.2547 46.1168 91.5052C46.1121 87.5757 48.1117 85.2961 51.3722 85.2961ZM53.6221 90.1359C53.4753 88.4652 52.5914 87.6187 51.3289 87.6187C50.0247 87.6187 49.2892 88.5083 49.0991 90.1359H53.6221Z" fill="white"/>
<path d="M60.8367 93.4989C61.0886 94.7582 61.804 95.0181 63.1546 95.0181C64.5051 95.0181 65.3426 94.7359 65.3426 94.0201C65.3426 93.7013 65.0908 93.4558 64.3537 93.2231L60.8413 92.0944C58.7367 91.4217 58.3581 90.6406 58.3581 89.209C58.3581 86.8003 60.146 85.3018 63.0294 85.3018C66.0797 85.3018 67.9309 86.8003 67.9742 89.2744H65.1278C65.1062 88.2111 64.4124 87.6898 63.0031 87.6898C61.9725 87.6898 61.3034 88.1234 61.3034 88.7738C61.3034 89.2521 61.5135 89.4482 62.334 89.6857L66.0581 90.8016C67.5523 91.2559 68.2879 92.2554 68.2879 93.6009V93.7603C68.2879 96.126 66.5201 97.4268 63.323 97.4268C59.8725 97.4268 58.0429 96.0814 57.9594 93.5196L60.8367 93.4989Z" fill="white"/>
<path d="M69.5042 85.7313H70.9613V82.5845H73.8973V85.7313H75.5383V87.7511H73.8973V93.871C73.8973 94.912 74.0858 95.1463 74.8646 95.1463C75.0905 95.142 75.3157 95.1201 75.5383 95.0809V97.2091C75.0114 97.2314 74.486 97.2968 73.8386 97.2968C71.9039 97.2968 70.9567 96.5364 70.9567 94.692V87.7479H69.5057L69.5042 85.7313Z" fill="white"/>
<path d="M78.8866 81.7815H84.7354C88.206 81.7815 90.5208 83.1477 90.5208 86.3822C90.5208 88.8993 88.8797 90.0056 87.9958 90.2671C89.215 90.9175 89.8254 92.4367 90.1592 93.9129L90.391 94.9331C90.5455 95.6712 90.7896 96.5384 91.2115 97.0167V97.208H88.0375C87.574 96.6867 87.4071 95.7111 87.1537 94.9507L86.6499 93.4538C86.4181 92.7587 85.766 91.3049 84.3769 91.3049H81.9153V97.2032H78.8866V81.7815ZM84.7137 88.8132C86.3764 88.8132 87.4272 88.1182 87.4272 86.5814C87.4272 85.0638 86.4181 84.2604 84.7354 84.2604H81.9153V88.818L84.7137 88.8132Z" fill="white"/>
<path d="M97.6708 85.2961C101.016 85.2961 102.993 87.8786 102.993 92.1509H95.3575C95.441 94.4305 96.3248 95.0809 97.7125 95.0809C98.7942 95.0809 99.712 94.7621 99.9639 93.9092H102.867C102.215 96.2096 100.154 97.4036 97.6136 97.4036C94.3948 97.4036 92.4185 95.2547 92.4185 91.5052C92.4123 87.5757 94.4103 85.2961 97.6708 85.2961ZM99.9222 90.1359C99.7677 88.4652 98.8915 87.6187 97.629 87.6187C96.3248 87.6187 95.5878 88.5083 95.3992 90.1359H99.9222Z" fill="white"/>
<path d="M104.446 85.4922H107.391V87.1851C108.231 85.8827 109.262 85.2961 110.79 85.2961C113.21 85.2961 114.598 86.7723 114.598 89.3548V97.2075H111.653V89.9813C111.653 88.5928 111.022 87.8754 109.76 87.8754C108.329 87.8754 107.383 88.7873 107.383 90.1757V97.2075H104.438L104.446 85.4922Z" fill="white"/>
<path d="M115.974 85.7313H117.425V82.5845H120.37V85.7313H122.011V87.7511H120.37V93.871C120.37 94.912 120.56 95.1463 121.337 95.1463C121.563 95.1421 121.788 95.1203 122.011 95.0809V97.2091C121.486 97.2314 120.959 97.2968 120.311 97.2968C118.377 97.2968 117.429 96.5364 117.429 94.692V87.7479H115.978L115.974 85.7313Z" fill="white"/>
<path d="M126.724 90.5115L127.903 90.2931C129.375 90.0332 130.258 90.1639 130.258 88.9269C130.258 88.1458 129.691 87.7552 128.558 87.7552C127.105 87.7552 126.622 88.1458 126.475 89.3605H123.635C123.825 86.6505 125.423 85.3018 128.495 85.3018C131.567 85.3018 133.144 86.5181 133.144 88.9046V95.415C133.144 96.024 133.291 96.3492 133.816 96.8497V97.2068H130.61C130.337 96.8593 130.273 96.3396 130.273 95.7322C129.243 96.8386 128.085 97.4029 126.823 97.4029C124.93 97.4029 123.374 96.3173 123.374 94.0393C123.38 91.9143 124.474 90.9164 126.724 90.5115ZM127.923 94.9591C129.417 94.9591 130.258 93.9612 130.258 92.2028V91.6831C129.922 91.8569 129.794 91.8999 129.022 92.0514L128.012 92.2475C126.792 92.485 126.33 92.8118 126.33 93.7013C126.33 94.5908 126.934 94.9527 127.923 94.9527V94.9591Z" fill="white"/>
<path d="M135.137 81.3909H138.082V97.208H135.137V81.3909Z" fill="white"/>
</svg>
