<svg width="356" height="293" viewBox="0 0 356 293" fill="none" xmlns="http://www.w3.org/2000/svg">
<path d="M325.121 192.128L327.671 197.297C327.75 197.454 327.865 197.59 328.006 197.694C328.148 197.797 328.312 197.866 328.485 197.893L334.181 198.716C334.381 198.744 334.57 198.828 334.725 198.958C334.88 199.088 334.996 199.258 335.059 199.451C335.122 199.643 335.13 199.849 335.081 200.045C335.033 200.242 334.931 200.421 334.786 200.562L330.658 204.591C330.528 204.718 330.432 204.875 330.379 205.048C330.325 205.221 330.315 205.405 330.351 205.583L331.343 211.259C331.378 211.459 331.357 211.665 331.28 211.853C331.204 212.042 331.076 212.205 330.912 212.324C330.747 212.443 330.552 212.513 330.349 212.527C330.147 212.54 329.944 212.496 329.765 212.4L324.675 209.721C324.52 209.645 324.351 209.606 324.179 209.606C324.007 209.606 323.837 209.645 323.682 209.721L318.582 212.4C318.402 212.511 318.194 212.566 317.983 212.559C317.771 212.552 317.567 212.482 317.395 212.359C317.224 212.236 317.092 212.065 317.017 211.868C316.942 211.67 316.928 211.455 316.975 211.249L317.967 205.573C318.003 205.394 317.992 205.209 317.937 205.036C317.881 204.862 317.782 204.706 317.649 204.581L313.502 200.562C313.357 200.421 313.255 200.243 313.206 200.047C313.157 199.852 313.164 199.646 313.226 199.454C313.288 199.262 313.402 199.091 313.556 198.961C313.71 198.831 313.897 198.746 314.097 198.716L319.803 197.893C319.975 197.864 320.139 197.795 320.28 197.692C320.421 197.588 320.537 197.453 320.616 197.297L323.166 192.128C323.254 191.943 323.393 191.786 323.566 191.677C323.739 191.567 323.939 191.509 324.144 191.509C324.349 191.509 324.549 191.567 324.722 191.677C324.895 191.786 325.034 191.943 325.121 192.128Z" fill="#D9D9D9"/>
<path d="M30.9438 37.865C30.5863 37.8568 30.24 37.739 29.9515 37.5276C29.6813 37.3322 29.4712 37.0651 29.3449 36.7565C29.2187 36.4478 29.1813 36.11 29.2371 35.7812L29.9317 31.7625L26.9549 28.9146C26.7181 28.6819 26.5509 28.3877 26.472 28.0652C26.3932 27.7427 26.4057 27.4046 26.5084 27.0889C26.6093 26.7708 26.7978 26.4876 27.0523 26.2718C27.3068 26.0559 27.6169 25.9161 27.9472 25.8684L31.9858 25.2829L33.7916 21.6214C33.9384 21.3231 34.1659 21.0719 34.4483 20.8965C34.7308 20.7211 35.0568 20.6285 35.3893 20.6292C35.7215 20.6296 36.047 20.7227 36.3292 20.898C36.6114 21.0733 36.8392 21.3238 36.9868 21.6214L38.7928 25.2829L42.8313 25.8684C43.1616 25.9161 43.4717 26.0559 43.7262 26.2718C43.9806 26.4876 44.1691 26.7708 44.2701 27.0889C44.3738 27.4053 44.3861 27.7446 44.3053 28.0676C44.2246 28.3907 44.0541 28.6843 43.8137 28.9146L40.8964 31.7625L41.5811 35.7812C41.6403 36.1091 41.6056 36.4471 41.4809 36.7561C41.3563 37.0652 41.1467 37.3326 40.8765 37.5276C40.6073 37.7224 40.2888 37.8377 39.9573 37.8605C39.6258 37.8834 39.2945 37.8127 39.0011 37.6566L35.3694 35.811L31.7575 37.7062C31.5025 37.8222 31.2237 37.8766 30.9438 37.865ZM35.3893 33.7471C35.6799 33.7477 35.966 33.8192 36.2227 33.9554L39.5568 35.7117L38.9218 31.9907C38.8719 31.7056 38.8929 31.4126 38.9829 31.1375C39.0728 30.8623 39.229 30.6136 39.4377 30.413L42.1367 27.7735L38.3958 27.2377C38.1092 27.1921 37.8379 27.0781 37.6047 26.9054C37.3715 26.7327 37.1834 26.5063 37.0563 26.2454L35.3694 22.9114L33.6924 26.295C33.5681 26.5579 33.3808 26.7861 33.1471 26.9592C32.9134 27.1323 32.6406 27.245 32.3529 27.2873L28.6219 27.8232L31.3209 30.4626C31.5296 30.6632 31.6858 30.912 31.7758 31.1871C31.8658 31.4622 31.8867 31.7552 31.8369 32.0403L31.2018 35.7614L34.5359 34.005C34.7881 33.8514 35.0745 33.7628 35.3694 33.7471H35.3893Z" fill="#D9D9D9"/>
<path d="M126.684 9.30758H119.739V2.31201C119.739 2.00756 119.678 1.70612 119.562 1.42497C119.445 1.14381 119.274 0.888492 119.058 0.673672C118.842 0.458852 118.586 0.288747 118.304 0.173143C118.023 0.0575389 117.721 -0.00128537 117.417 2.13001e-05C117.112 -0.00128537 116.81 0.0575389 116.529 0.173143C116.247 0.288747 115.991 0.458852 115.775 0.673672C115.56 0.888492 115.388 1.14381 115.272 1.42497C115.155 1.70612 115.095 2.00756 115.095 2.31201V9.30758H108.099C107.795 9.30758 107.493 9.36771 107.212 9.48452C106.931 9.60133 106.676 9.77252 106.461 9.98826C106.246 10.204 106.076 10.46 105.96 10.7417C105.845 11.0233 105.786 11.3251 105.787 11.6295C105.786 11.934 105.845 12.2357 105.96 12.5173C106.076 12.799 106.246 13.055 106.461 13.2708C106.676 13.4865 106.931 13.6577 107.212 13.7745C107.493 13.8913 107.795 13.9514 108.099 13.9514H115.095V20.8974C115.095 21.5132 115.339 22.1038 115.775 22.5392C116.21 22.9747 116.801 23.2193 117.417 23.2193C118.032 23.2193 118.623 22.9747 119.058 22.5392C119.494 22.1038 119.739 21.5132 119.739 20.8974V13.9514H126.684C127.3 13.9514 127.891 13.7068 128.326 13.2714C128.762 12.8359 129.006 12.2453 129.006 11.6295C129.006 11.0137 128.762 10.4231 128.326 9.98765C127.891 9.55221 127.3 9.30758 126.684 9.30758Z" fill="#D9D9D9"/>
<path d="M138.543 230.585H131.597V223.59C131.597 223.285 131.537 222.984 131.42 222.703C131.303 222.422 131.132 222.166 130.916 221.952C130.701 221.737 130.445 221.567 130.163 221.451C129.881 221.335 129.58 221.277 129.275 221.278C128.662 221.278 128.074 221.521 127.64 221.955C127.207 222.389 126.963 222.977 126.963 223.59V230.585H120.017C119.401 230.585 118.811 230.83 118.375 231.265C117.94 231.701 117.695 232.292 117.695 232.907C117.695 233.212 117.755 233.513 117.872 233.794C117.989 234.076 118.16 234.331 118.376 234.546C118.592 234.761 118.848 234.931 119.129 235.046C119.411 235.162 119.713 235.221 120.017 235.219H126.963V242.215C126.962 242.519 127.021 242.821 127.136 243.103C127.252 243.384 127.422 243.64 127.637 243.856C127.852 244.072 128.107 244.243 128.388 244.36C128.669 244.477 128.971 244.537 129.275 244.537C129.891 244.537 130.482 244.292 130.917 243.857C131.352 243.421 131.597 242.831 131.597 242.215V235.219H138.543C138.848 235.221 139.149 235.162 139.431 235.046C139.713 234.931 139.969 234.761 140.184 234.546C140.4 234.331 140.571 234.076 140.688 233.794C140.805 233.513 140.865 233.212 140.865 232.907C140.865 232.292 140.62 231.701 140.185 231.265C139.749 230.83 139.159 230.585 138.543 230.585Z" fill="#D9D9D9"/>
<path d="M281.356 50.7099L294.732 48.0307C295.038 47.972 295.353 47.9978 295.645 48.1055C295.937 48.2133 296.194 48.3987 296.388 48.6419C296.582 48.8851 296.706 49.1767 296.747 49.4852C296.787 49.7937 296.742 50.1074 296.617 50.3923L291.735 61.2479C291.623 61.4949 291.454 61.7116 291.241 61.8796C291.028 62.0477 290.778 62.1623 290.512 62.2138C290.246 62.2653 289.971 62.2522 289.711 62.1757C289.451 62.0991 289.212 61.9613 289.017 61.7738L280.513 53.5875C280.292 53.3723 280.134 53.1011 280.056 52.8028C279.977 52.5046 279.982 52.1907 280.069 51.8949C280.155 51.599 280.321 51.3323 280.548 51.1236C280.775 50.9148 281.054 50.7718 281.356 50.7099Z" fill="#D9D9D9"/>
<path d="M35.8118 209.331C39.363 209.331 42.2417 206.452 42.2417 202.901C42.2417 199.349 39.363 196.471 35.8118 196.471C32.2606 196.471 29.3818 199.349 29.3818 202.901C29.3818 206.452 32.2606 209.331 35.8118 209.331Z" fill="#D9D9D9"/>
<path d="M345.501 118.24C342.719 118.234 340.051 117.127 338.084 115.159C336.116 113.191 335.008 110.524 335.003 107.741C335.006 104.958 336.112 102.289 338.081 100.321C340.049 98.3527 342.718 97.2458 345.501 97.2432C346.88 97.2432 348.245 97.5147 349.519 98.0423C350.792 98.5699 351.95 99.3432 352.925 100.318C353.9 101.293 354.673 102.45 355.2 103.724C355.728 104.998 356 106.363 356 107.741C355.997 110.525 354.89 113.194 352.922 115.162C350.954 117.13 348.285 118.237 345.501 118.24ZM345.501 99.2277C343.243 99.2277 341.078 100.125 339.481 101.721C337.885 103.318 336.987 105.483 336.987 107.741C336.99 109.999 337.888 112.163 339.484 113.759C341.08 115.355 343.244 116.253 345.501 116.255C347.759 116.255 349.925 115.358 351.521 113.762C353.118 112.165 354.015 109.999 354.015 107.741C354.015 105.483 353.118 103.318 351.521 101.721C349.925 100.125 347.759 99.2277 345.501 99.2277Z" fill="#D9D9D9"/>
<path d="M255.482 292.721H83.8185C83.4237 292.721 83.0451 292.565 82.766 292.286C82.4869 292.006 82.3301 291.628 82.3301 291.233C82.3301 290.838 82.4869 290.46 82.766 290.181C83.0451 289.901 83.4237 289.745 83.8185 289.745H255.482C255.877 289.745 256.256 289.901 256.535 290.181C256.814 290.46 256.971 290.838 256.971 291.233C256.971 291.628 256.814 292.006 256.535 292.286C256.256 292.565 255.877 292.721 255.482 292.721Z" fill="#D9D9D9"/>
<path d="M74.3016 292.721H70.5607C70.1659 292.721 69.7873 292.565 69.5082 292.286C69.2291 292.006 69.0723 291.628 69.0723 291.233C69.0723 290.838 69.2291 290.46 69.5082 290.181C69.7873 289.901 70.1659 289.745 70.5607 289.745H74.3016C74.6963 289.745 75.0749 289.901 75.354 290.181C75.6332 290.46 75.79 290.838 75.79 291.233C75.79 291.628 75.6332 292.006 75.354 292.286C75.0749 292.565 74.6963 292.721 74.3016 292.721Z" fill="#D9D9D9"/>
<path d="M276.379 292.721H263.718C263.323 292.721 262.945 292.565 262.665 292.286C262.386 292.006 262.229 291.628 262.229 291.233C262.229 290.838 262.386 290.46 262.665 290.181C262.945 289.901 263.323 289.745 263.718 289.745H276.379C276.774 289.745 277.153 289.901 277.432 290.181C277.711 290.46 277.868 290.838 277.868 291.233C277.868 291.628 277.711 292.006 277.432 292.286C277.153 292.565 276.774 292.721 276.379 292.721Z" fill="#D9D9D9"/>
<path d="M290.062 292.721H285.349C284.954 292.721 284.575 292.565 284.296 292.286C284.017 292.006 283.86 291.628 283.86 291.233C283.86 290.838 284.017 290.46 284.296 290.181C284.575 289.901 284.954 289.745 285.349 289.745H290.062C290.457 289.745 290.835 289.901 291.115 290.181C291.394 290.46 291.55 290.838 291.55 291.233C291.55 291.628 291.394 292.006 291.115 292.286C290.835 292.565 290.457 292.721 290.062 292.721Z" fill="#D9D9D9"/>
<path d="M38.2719 90.9846H34.3028C34.0397 90.9846 33.7873 90.88 33.6012 90.6939C33.4151 90.5079 33.3105 90.2554 33.3105 89.9923C33.3105 89.7291 33.4151 89.4767 33.6012 89.2906C33.7873 89.1046 34.0397 89 34.3028 89H38.2719C38.5351 89 38.7875 89.1046 38.9736 89.2906C39.1597 89.4767 39.2642 89.7291 39.2642 89.9923C39.2642 90.2554 39.1597 90.5079 38.9736 90.6939C38.7875 90.88 38.5351 90.9846 38.2719 90.9846Z" fill="#D9D9D9"/>
<path d="M24.8069 90.9846H0.992277C0.729109 90.9846 0.476734 90.88 0.290646 90.6939C0.104558 90.5079 0 90.2554 0 89.9923C0 89.7291 0.104558 89.4767 0.290646 89.2906C0.476734 89.1046 0.729109 89 0.992277 89H24.8069C25.0701 89 25.3225 89.1046 25.5086 89.2906C25.6946 89.4767 25.7992 89.7291 25.7992 89.9923C25.7992 90.2554 25.6946 90.5079 25.5086 90.6939C25.3225 90.88 25.0701 90.9846 24.8069 90.9846Z" fill="#D9D9D9"/>
<path d="M286.183 20.788H263.43L263.143 20.3811C261.715 18.421 259.845 16.8253 257.684 15.7236C255.524 14.6219 253.134 14.0452 250.709 14.0405C249.71 14.0362 248.713 14.1326 247.733 14.3282C247.604 14.3542 247.472 14.3545 247.343 14.3291C247.215 14.3037 247.093 14.2531 246.984 14.1802C246.875 14.1073 246.782 14.0136 246.709 13.9045C246.637 13.7953 246.587 13.6729 246.562 13.5443C246.512 13.2865 246.567 13.0195 246.714 12.8019C246.861 12.5843 247.088 12.4338 247.346 12.3834C248.454 12.1649 249.58 12.0552 250.709 12.0559C253.36 12.0601 255.974 12.6702 258.353 13.8397C260.731 15.0092 262.811 16.707 264.433 18.8034H286.183C286.447 18.8034 286.699 18.9079 286.885 19.094C287.071 19.2801 287.176 19.5325 287.176 19.7957C287.176 20.0589 287.071 20.3112 286.885 20.4973C286.699 20.6834 286.447 20.788 286.183 20.788Z" fill="#D9D9D9"/>
<path d="M211.961 20.7882H183.185C182.921 20.7882 182.669 20.6837 182.483 20.4976C182.297 20.3115 182.192 20.0591 182.192 19.7959C182.192 19.5328 182.297 19.2804 182.483 19.0943C182.669 18.9082 182.921 18.8037 183.185 18.8037H209.976C210.243 13.7366 212.44 8.9641 216.116 5.46685C219.792 1.9696 224.668 0.0132995 229.742 0C233.79 0.00680142 237.738 1.25088 241.058 3.56539C244.378 5.8799 246.911 9.15418 248.318 12.9492C248.364 13.0717 248.385 13.202 248.381 13.3328C248.376 13.4635 248.346 13.592 248.291 13.711C248.237 13.83 248.159 13.937 248.064 14.0259C247.968 14.1149 247.855 14.184 247.732 14.2292C247.609 14.275 247.478 14.2959 247.347 14.2907C247.216 14.2855 247.087 14.2543 246.968 14.1989C246.849 14.1436 246.742 14.0651 246.653 13.9681C246.565 13.8711 246.497 13.7575 246.452 13.6339C245.186 10.2205 242.907 7.27563 239.921 5.19362C236.934 3.1116 233.383 1.99192 229.742 1.98455C225.024 2.00026 220.504 3.88216 217.169 7.21932C213.833 10.5565 211.954 15.0778 211.941 19.7959L211.961 20.7882Z" fill="#D9D9D9"/>
<path d="M300.751 20.7883H293.805C293.542 20.7883 293.289 20.6837 293.103 20.4976C292.917 20.3115 292.812 20.0592 292.812 19.796C292.812 19.5328 292.917 19.2804 293.103 19.0943C293.289 18.9082 293.542 18.8037 293.805 18.8037H300.751C301.014 18.8037 301.266 18.9082 301.452 19.0943C301.638 19.2804 301.743 19.5328 301.743 19.796C301.743 20.0592 301.638 20.3115 301.452 20.4976C301.266 20.6837 301.014 20.7883 300.751 20.7883Z" fill="#D9D9D9"/>
<path d="M314.007 20.7883H307.061C306.797 20.7883 306.545 20.6837 306.359 20.4976C306.173 20.3115 306.068 20.0592 306.068 19.796C306.068 19.5328 306.173 19.2804 306.359 19.0943C306.545 18.9082 306.797 18.8037 307.061 18.8037H314.007C314.27 18.8037 314.522 18.9082 314.708 19.0943C314.894 19.2804 314.999 19.5328 314.999 19.796C314.999 20.0592 314.894 20.3115 314.708 20.4976C314.522 20.6837 314.27 20.7883 314.007 20.7883Z" fill="#D9D9D9"/>
<path d="M161.28 90.4248C161.28 85.7193 161.28 81.0138 161.28 76.2818C161.28 73.836 162.156 72.5865 164.812 72.6662C170.441 72.8258 176.124 72.4004 181.7 72.9587C186.143 73.3472 190.449 74.7023 194.315 76.9293C198.181 79.1563 201.515 82.2015 204.084 85.8523C208.174 91.5148 212.05 97.2836 216.007 103.106C216.687 104.468 217.178 105.917 217.467 107.412C216.015 107.932 214.51 108.289 212.98 108.476C206.607 108.609 200.208 108.476 193.835 108.476C185.152 108.476 176.469 108.476 167.786 108.476C161.227 108.476 161.201 108.476 161.147 101.643C161.147 97.8951 161.147 94.1201 161.147 90.3451L161.28 90.4248ZM210.112 103.478C205.014 94.5453 199.676 86.5966 191.312 81.1733C188.182 79.0699 184.634 77.6696 180.912 77.0684C177.191 76.4673 173.383 76.6796 169.751 77.6908C168.423 78.063 166.485 79.7377 166.458 80.8809C166.166 88.3511 166.299 95.8214 166.299 103.478H210.112Z" fill="#8F8F8F"/>
<path d="M146.092 90.6375C146.092 95.4759 146.092 100.314 146.092 105.153C146.092 107.492 145.162 108.582 142.746 108.582C135.152 108.582 127.557 108.582 119.963 108.582C115.953 108.582 111.997 109.007 107.961 109.194C107.027 109.327 106.08 109.327 105.146 109.194C102.783 108.635 100.446 107.891 98.083 107.226C98.8185 105.186 99.7061 103.205 100.738 101.298C104.27 95.981 108.014 90.9565 111.705 85.8523C119.405 75.2185 130.292 71.8156 142.772 72.56C145.242 72.7195 146.012 73.8095 145.959 76.1223C146.038 80.9607 146.092 85.7991 146.092 90.6375ZM141.1 103.451C141.1 95.8215 141.1 88.5905 141.1 81.3595C141.1 78.701 139.878 77.5844 137.117 77.5578C123.999 77.5578 109.342 90.159 107.563 103.451H141.1Z" fill="#8F8F8F"/>
<path d="M99.9405 169.54C99.8581 171.017 99.1994 172.401 98.1067 173.396C97.0139 174.391 95.5745 174.915 94.0988 174.857C92.6733 174.796 91.3262 174.187 90.3373 173.157C89.3484 172.128 88.7936 170.756 88.7881 169.328C88.906 167.924 89.5524 166.617 90.5965 165.672C91.6405 164.727 93.0041 164.214 94.4114 164.238C95.8186 164.262 97.1643 164.82 98.176 165.799C99.1878 166.779 99.79 168.107 99.8609 169.514L99.9405 169.54Z" fill="#8F8F8F"/>
<path d="M168.051 123.071H157.43C156.212 123.071 155.226 124.053 155.226 125.264C155.226 126.475 156.212 127.457 157.43 127.457H168.051C169.268 127.457 170.255 126.475 170.255 125.264C170.255 124.053 169.268 123.071 168.051 123.071Z" fill="#8F8F8F"/>
<path d="M293.887 137.852C292.916 129.851 289.421 122.368 283.91 116.492C278.399 110.616 271.16 106.653 263.245 105.179C258.6 104.436 253.901 104.089 249.198 104.142C246.373 104.211 243.582 103.505 241.129 102.099C238.677 100.693 236.655 98.6415 235.284 96.1671C229.363 87.2081 222.99 78.4884 216.351 70.0611C213.03 65.4373 208.725 61.6085 203.748 58.8504C198.771 56.0922 193.245 54.4734 187.568 54.1104C169.724 53.2331 151.827 52.7279 133.983 53.1533C118.316 53.4989 105.703 60.8628 96.3831 73.5968C91.9222 79.6581 87.4612 85.7194 83.2923 91.9934C78.8083 99.0635 72.6164 104.888 65.2891 108.928C61.4523 110.8 58.0925 113.523 55.4651 116.89C52.8378 120.258 51.0121 124.181 50.127 128.361C48.6612 136.806 47.9503 145.364 48.0028 153.935C47.87 161.113 52.4638 165.181 59.7394 165.553C62.6868 165.712 65.6608 165.712 68.6082 165.553C70.7591 165.553 71.4229 166.244 72.0602 168.344C73.2045 173.28 74.9899 178.043 77.3709 182.514C84.7527 194.291 103.34 194.557 110.934 182.966C113.496 178.424 115.443 173.56 116.723 168.504C117.413 166.244 118.29 165.526 120.547 165.553C128.884 165.553 137.222 165.553 145.56 165.553C146.624 165.728 147.709 165.728 148.773 165.553C149.711 165.033 150.562 164.369 151.296 163.586C150.579 162.815 149.994 161.725 149.118 161.406C147.822 161.054 146.474 160.928 145.135 161.034C138.284 161.034 131.407 160.901 124.556 161.166C121.827 161.412 119.081 160.941 116.589 159.798C114.098 158.656 111.947 156.883 110.35 154.653C102.756 145.03 86.7973 144.365 79.4155 153.616C73.8127 160.608 67.1478 162.07 59.049 160.927C58.1363 160.897 57.2389 160.684 56.4091 160.303C55.5792 159.921 54.8336 159.378 54.2156 158.705C53.5977 158.032 53.1198 157.242 52.8099 156.382C52.5 155.522 52.3643 154.609 52.4106 153.696C52.4106 149.655 52.4106 145.721 52.4106 141.574C52.57 126.979 59.3411 116.664 72.3257 109.965C75.9594 108.015 79.1226 105.293 81.5929 101.989C87.5408 94.1999 92.7718 85.8789 98.5074 77.9301C107.164 65.9405 118.688 58.3639 133.638 57.8056C149.57 57.1941 165.661 57.0612 181.62 57.6461C187.915 57.8801 194.081 59.4998 199.68 62.3899C205.279 65.28 210.173 69.3695 214.015 74.3678C219.827 81.5874 225.082 89.2392 229.734 97.2571C235.045 106.455 242.241 109.991 252.783 108.875C259.494 108.098 266.28 109.451 272.183 112.742C278.086 116.033 282.808 121.096 285.682 127.218C290.542 137.852 289.851 149.416 290.86 161.22C285.815 161.22 281.407 161.06 276.999 161.22C275.586 161.278 274.172 161.126 272.804 160.768C273.309 162.469 273.76 164.197 274.105 165.952C274.779 165.762 275.477 165.672 276.176 165.686C281.036 165.686 285.868 165.686 290.701 165.686C293.356 165.686 294.764 164.782 294.657 161.964C294.392 153.989 294.657 145.88 293.887 137.852ZM94.4978 152.021C98.9886 152.25 103.216 154.214 106.29 157.5C109.364 160.785 111.045 165.137 110.979 169.638C110.914 174.139 109.107 178.44 105.939 181.635C102.771 184.829 98.4888 186.669 93.9933 186.767C89.5025 186.539 85.2754 184.575 82.2015 181.289C79.1275 178.003 77.4464 173.652 77.5117 169.151C77.5771 164.649 79.3839 160.349 82.5519 157.154C85.72 153.959 90.0023 152.119 94.4978 152.021Z" fill="#8F8F8F"/>
<path d="M277.572 181.042C277.572 168.537 273.868 156.312 266.929 145.914C259.989 135.516 250.126 127.412 238.586 122.626C227.046 117.841 214.347 116.589 202.097 119.028C189.846 121.468 178.593 127.49 169.76 136.333C160.928 145.175 154.913 156.442 152.476 168.707C150.039 180.972 151.29 193.685 156.07 205.239C160.85 216.792 168.945 226.667 179.331 233.615C189.716 240.563 201.927 244.271 214.417 244.271C231.16 244.249 247.211 237.58 259.05 225.727C270.889 213.874 277.55 197.805 277.572 181.042ZM214.417 240.091C202.752 240.091 191.349 236.628 181.65 230.139C171.951 223.651 164.391 214.429 159.927 203.639C155.463 192.849 154.295 180.977 156.571 169.522C158.847 158.068 164.464 147.546 172.712 139.288C180.961 131.03 191.47 125.406 202.911 123.128C214.352 120.849 226.211 122.019 236.988 126.488C247.765 130.957 256.976 138.526 263.457 148.236C269.938 157.947 273.397 169.363 273.397 181.042C273.375 196.696 267.154 211.702 256.098 222.771C245.042 233.84 230.053 240.069 214.417 240.091Z" fill="#295EAC"/>
<path d="M214.417 128.542C204.051 128.569 193.927 131.672 185.321 137.457C176.716 143.243 170.017 151.452 166.069 161.047C162.121 170.643 161.103 181.195 163.142 191.369C165.181 201.544 170.186 210.886 177.525 218.214C184.865 225.543 194.208 230.529 204.377 232.543C214.545 234.558 225.082 233.51 234.655 229.532C244.229 225.555 252.411 218.826 258.167 210.195C263.923 201.565 266.995 191.42 266.995 181.042C266.987 174.138 265.621 167.303 262.975 160.928C260.328 154.552 256.453 148.761 251.57 143.886C246.688 139.01 240.893 135.146 234.518 132.513C228.143 129.88 221.313 128.531 214.417 128.542ZM214.417 229.362C204.871 229.362 195.54 226.528 187.603 221.219C179.666 215.909 173.48 208.363 169.827 199.533C166.174 190.704 165.218 180.988 167.08 171.615C168.943 162.242 173.539 153.632 180.289 146.874C187.039 140.117 195.639 135.515 205.001 133.65C214.363 131.786 224.067 132.743 232.886 136.4C241.705 140.057 249.243 146.251 254.547 154.197C259.85 162.143 262.68 171.485 262.68 181.042C262.666 193.853 257.576 206.135 248.528 215.193C239.48 224.252 227.213 229.348 214.417 229.362Z" fill="#295EAC"/>
<path d="M214.556 189.903C211.447 189.911 208.415 190.874 205.871 192.664C203.327 194.453 201.394 196.982 200.333 199.907C200.226 200.172 200.174 200.456 200.18 200.741C200.186 201.026 200.249 201.308 200.366 201.568C200.483 201.828 200.651 202.062 200.861 202.256C201.07 202.449 201.317 202.598 201.585 202.694C201.825 202.735 202.07 202.735 202.309 202.694C202.734 202.692 203.148 202.56 203.497 202.316C203.845 202.072 204.11 201.728 204.258 201.329C205.001 199.253 206.354 197.451 208.137 196.158C209.921 194.865 212.053 194.141 214.254 194.08C216.456 194.02 218.624 194.627 220.476 195.821C222.327 197.014 223.776 198.74 224.632 200.771C224.85 201.281 225.261 201.684 225.775 201.89C226.289 202.097 226.864 202.09 227.373 201.872C227.883 201.654 228.285 201.242 228.491 200.727C228.697 200.213 228.691 199.637 228.473 199.127C227.311 196.394 225.373 194.062 222.898 192.422C220.424 190.782 217.523 189.906 214.556 189.903Z" fill="#295EAC"/>
<path d="M243.587 159.975C243.195 159.584 242.665 159.364 242.111 159.364C241.558 159.364 241.028 159.584 240.636 159.975L235.57 165.075L230.477 159.975C230.081 159.606 229.558 159.405 229.017 159.415C228.476 159.424 227.96 159.644 227.578 160.027C227.195 160.41 226.976 160.926 226.967 161.468C226.957 162.009 227.158 162.533 227.527 162.929L232.62 168.029L227.527 173.1C227.136 173.492 226.916 174.024 226.916 174.577C226.916 175.131 227.136 175.662 227.527 176.054C227.719 176.25 227.949 176.405 228.202 176.51C228.456 176.615 228.727 176.669 229.002 176.667C229.277 176.674 229.55 176.622 229.804 176.517C230.058 176.411 230.287 176.254 230.477 176.054L235.57 170.983L240.636 176.054C240.828 176.251 241.058 176.407 241.311 176.512C241.565 176.617 241.837 176.67 242.111 176.667C242.386 176.669 242.657 176.615 242.911 176.51C243.164 176.405 243.394 176.25 243.587 176.054C243.977 175.662 244.197 175.131 244.197 174.577C244.197 174.024 243.977 173.492 243.587 173.1L238.521 168.029L243.587 162.929C243.977 162.537 244.197 162.006 244.197 161.452C244.197 160.899 243.977 160.367 243.587 159.975Z" fill="#295EAC"/>
<path d="M201.308 173.1L196.242 168.029L201.308 162.929C201.505 162.737 201.661 162.508 201.768 162.254C201.875 162 201.93 161.728 201.93 161.452C201.93 161.177 201.875 160.905 201.768 160.651C201.661 160.397 201.505 160.168 201.308 159.975C200.916 159.584 200.386 159.364 199.833 159.364C199.279 159.364 198.749 159.584 198.357 159.975L193.292 165.075L188.226 159.975C187.83 159.606 187.307 159.405 186.766 159.415C186.225 159.424 185.709 159.644 185.327 160.027C184.944 160.41 184.725 160.926 184.716 161.468C184.706 162.009 184.907 162.533 185.276 162.929L190.341 168.029L185.276 173.1C184.885 173.492 184.665 174.024 184.665 174.577C184.665 175.131 184.885 175.662 185.276 176.054C185.467 176.251 185.697 176.407 185.95 176.512C186.204 176.617 186.476 176.67 186.751 176.667C187.025 176.669 187.297 176.615 187.55 176.51C187.803 176.405 188.033 176.25 188.226 176.054L193.292 170.983L198.357 176.054C198.55 176.25 198.78 176.405 199.033 176.51C199.287 176.615 199.558 176.669 199.833 176.667C200.107 176.67 200.379 176.617 200.633 176.512C200.886 176.407 201.116 176.251 201.308 176.054C201.505 175.862 201.661 175.633 201.768 175.379C201.875 175.125 201.93 174.853 201.93 174.577C201.93 174.302 201.875 174.03 201.768 173.776C201.661 173.522 201.505 173.293 201.308 173.1Z" fill="#295EAC"/>
<path d="M305.322 253.16L284.28 232.121C282.51 230.364 280.284 229.138 277.854 228.582C275.424 228.025 272.887 228.161 270.53 228.972L267.468 225.907C267.277 225.702 267.047 225.537 266.791 225.423C266.535 225.308 266.258 225.247 265.978 225.242C265.698 225.237 265.419 225.289 265.159 225.394C264.899 225.499 264.663 225.655 264.465 225.854C264.267 226.052 264.111 226.289 264.006 226.549C263.901 226.809 263.849 227.088 263.854 227.369C263.859 227.649 263.92 227.926 264.034 228.182C264.149 228.439 264.313 228.669 264.518 228.861L266.717 231.062C266.257 231.384 265.82 231.738 265.409 232.121C264.881 232.66 264.406 233.248 263.989 233.877L261.818 231.703C261.423 231.334 260.899 231.133 260.358 231.142C259.817 231.152 259.301 231.371 258.919 231.754C258.537 232.137 258.317 232.654 258.308 233.195C258.298 233.737 258.499 234.261 258.868 234.657L262.069 237.862C261.395 240.157 261.349 242.591 261.937 244.91C262.524 247.229 263.723 249.347 265.409 251.042L286.423 272.081C287.662 273.328 289.135 274.316 290.756 274.991C292.378 275.666 294.117 276.013 295.873 276.013C297.629 276.013 299.368 275.666 300.989 274.991C302.611 274.316 304.084 273.328 305.322 272.081C307.823 269.569 309.226 266.167 309.226 262.621C309.226 259.074 307.823 255.672 305.322 253.16ZM302.372 269.1C301.519 269.955 300.506 270.633 299.391 271.096C298.275 271.559 297.08 271.798 295.873 271.798C294.666 271.798 293.47 271.559 292.355 271.096C291.24 270.633 290.227 269.955 289.374 269.1L268.359 248.061C266.716 246.322 265.814 244.011 265.846 241.618C265.877 239.225 266.84 236.938 268.528 235.244C270.217 233.55 272.499 232.581 274.889 232.544C277.279 232.508 279.59 233.405 281.33 235.047L302.372 256.114C304.082 257.841 305.041 260.175 305.041 262.607C305.041 265.039 304.082 267.372 302.372 269.1Z" fill="#295EAC"/>
</svg>
